<?xml version="1.0" encoding="utf-8"?>
<!-- Generator: Adobe Illustrator 28.0.0, SVG Export Plug-In . SVG Version: 6.00 Build 0)  -->
<svg version="1.1" id="Camada_1" xmlns="http://www.w3.org/2000/svg" xmlns:xlink="http://www.w3.org/1999/xlink" x="0px" y="0px"
	 viewBox="0 0 1080 1350" style="enable-background:new 0 0 1080 1350;" xml:space="preserve">
<style type="text/css">
	.st0{fill:url(#SVGID_1_);}
	.st1{fill:url(#SVGID_00000014611275929334232580000013070424888598133122_);}
	.st2{fill:url(#SVGID_00000003807521449005996520000007446194856215047298_);}
	.st3{fill:url(#SVGID_00000096050784928194043620000004771299703462782359_);}
	.st4{fill:url(#SVGID_00000025431112863017481650000011043074481221733289_);}
	.st5{fill:url(#SVGID_00000021102654021362008800000000812109291358624135_);}
	.st6{fill:url(#SVGID_00000039844005681886675110000001670804651306044070_);}
	.st7{fill:url(#SVGID_00000156569658985162303220000017555168141278234792_);}
	.st8{fill:url(#SVGID_00000049189782767750608830000001703464318481550514_);}
</style>
<linearGradient id="SVGID_1_" gradientUnits="userSpaceOnUse" x1="448.5572" y1="239.298" x2="771.9941" y2="239.298">
	<stop  offset="0" style="stop-color:#58B0E3"/>
	<stop  offset="1" style="stop-color:#006AB3"/>
</linearGradient>
<path class="st0" d="M723.29,140.05c-26.85,0-48.7,21.85-48.7,48.7c0,8.08,2.01,15.69,5.5,22.4l-56.04,56.04
	c-10.26-6.48-22.37-10.3-35.38-10.3c-13.01,0-25.12,3.81-35.38,10.3l-12.85-12.86c3.49-6.71,5.5-14.32,5.5-22.39
	c0-8.08-2.01-15.69-5.5-22.4l28.88-28.88c6.71,3.5,14.32,5.5,22.4,5.5c26.85,0,48.7-21.85,48.7-48.7s-21.85-48.7-48.7-48.7
	c-26.85,0-48.7,21.85-48.7,48.7c0,8.08,2.01,15.69,5.5,22.4l-28.88,28.88c-6.71-3.5-14.32-5.5-22.4-5.5
	c-26.85,0-48.7,21.85-48.7,48.7c0,26.85,21.85,48.7,48.7,48.7c8.08,0,15.68-2.01,22.4-5.5L532.51,288
	c-6.48,10.26-10.29,22.36-10.29,35.37c0,36.65,29.81,66.46,66.46,66.46s66.47-29.82,66.47-66.46c0-13.01-3.81-25.12-10.3-35.38
	l56.04-56.04c6.71,3.5,14.32,5.5,22.4,5.5c26.85,0,48.7-21.85,48.7-48.7C771.99,161.9,750.15,140.05,723.29,140.05z M591.73,118.17
	c10.64,0,19.3,8.66,19.3,19.3c0,10.64-8.66,19.3-19.3,19.3c-10.64,0-19.3-8.66-19.3-19.3C572.44,126.83,581.09,118.17,591.73,118.17
	z M477.96,231.94c0-10.64,8.66-19.3,19.3-19.3c10.64,0,19.3,8.66,19.3,19.3c0,10.64-8.66,19.3-19.3,19.3
	C486.62,251.24,477.96,242.58,477.96,231.94z M588.68,360.43c-20.43,0-37.06-16.63-37.06-37.06c0-20.44,16.63-37.06,37.06-37.06
	c20.44,0,37.06,16.63,37.06,37.06C625.74,343.8,609.12,360.43,588.68,360.43z M723.29,208.05c-10.64,0-19.3-8.66-19.3-19.3
	c0-10.64,8.66-19.3,19.3-19.3c10.64,0,19.3,8.66,19.3,19.3C742.59,199.4,733.93,208.05,723.29,208.05z"/>
<g>
	
		<linearGradient id="SVGID_00000120516448586290196650000008370194294149613498_" gradientUnits="userSpaceOnUse" x1="450.3824" y1="831.2672" x2="462.8906" y2="831.2672">
		<stop  offset="0" style="stop-color:#F59A00"/>
		<stop  offset="1" style="stop-color:#E94075"/>
	</linearGradient>
	<path style="fill:url(#SVGID_00000120516448586290196650000008370194294149613498_);" d="M461.52,844.8
		c0.91-1.88,1.37-4.54,1.37-7.97V822.1c0-4.8-2.11-7.2-6.34-7.2h-6.17v32.73h6C458.89,847.63,460.6,846.69,461.52,844.8z"/>
	
		<linearGradient id="SVGID_00000059271052636072291720000014747385720098470047_" gradientUnits="userSpaceOnUse" x1="375.3572" y1="715.587" x2="391.3492" y2="715.587">
		<stop  offset="0" style="stop-color:#F59A00"/>
		<stop  offset="1" style="stop-color:#E94075"/>
	</linearGradient>
	<path style="fill:url(#SVGID_00000059271052636072291720000014747385720098470047_);" d="M391.35,727.2v-20.37
		c0-4.95-0.73-8.69-2.19-11.23c-1.46-2.54-4.03-3.81-7.71-3.81h-6.09v47.4l3.24,0.19C387.1,739.38,391.35,735.32,391.35,727.2z"/>
	
		<linearGradient id="SVGID_00000082363136349138704720000008477773215004704392_" gradientUnits="userSpaceOnUse" x1="375.3572" y1="647.9094" x2="389.2544" y2="647.9094">
		<stop  offset="0" style="stop-color:#F59A00"/>
		<stop  offset="1" style="stop-color:#E94075"/>
	</linearGradient>
	<path style="fill:url(#SVGID_00000082363136349138704720000008477773215004704392_);" d="M387.73,662.95
		c1.01-2.09,1.52-5.05,1.52-8.85v-16.37c0-5.33-2.35-8-7.04-8h-6.85v36.36h6.66C384.81,666.09,386.71,665.04,387.73,662.95z"/>
	
		<linearGradient id="SVGID_00000004546150789226693000000004390290526790472320_" gradientUnits="userSpaceOnUse" x1="588.3046" y1="833.1523" x2="601.4974" y2="833.1523">
		<stop  offset="0" style="stop-color:#F59A00"/>
		<stop  offset="1" style="stop-color:#E94075"/>
	</linearGradient>
	<path style="fill:url(#SVGID_00000004546150789226693000000004390290526790472320_);" d="M599.1,820.64
		c-0.92-0.74-2.23-1.11-3.94-1.11h-6.85v27.24h7.03c4.11,0,6.17-4.45,6.17-13.36c0-3.88-0.17-6.79-0.51-8.74
		C600.64,822.73,600.01,821.39,599.1,820.64z"/>
	
		<linearGradient id="SVGID_00000181779766287231860260000008852229333258504337_" gradientUnits="userSpaceOnUse" x1="450.3824" y1="892.177" x2="464.7758" y2="892.177">
		<stop  offset="0" style="stop-color:#F59A00"/>
		<stop  offset="1" style="stop-color:#E94075"/>
	</linearGradient>
	<path style="fill:url(#SVGID_00000181779766287231860260000008852229333258504337_);" d="M455.87,870.76h-5.48v42.66l2.91,0.17
		c7.65,0,11.48-3.65,11.48-10.96V884.3c0-4.45-0.66-7.82-1.97-10.11C461.49,871.9,459.18,870.76,455.87,870.76z"/>
	
		<linearGradient id="SVGID_00000080172361152460933360000012331686684153572242_" gradientUnits="userSpaceOnUse" x1="376.2557" y1="864.1571" x2="388.1347" y2="864.1571">
		<stop  offset="0" style="stop-color:#F59A00"/>
		<stop  offset="1" style="stop-color:#E94075"/>
	</linearGradient>
	<polygon style="fill:url(#SVGID_00000080172361152460933360000012331686684153572242_);" points="381.13,830.88 376.26,897.43 
		388.13,897.43 382.35,830.88 	"/>
	
		<linearGradient id="SVGID_00000006683140306698656130000004035003044876237220_" gradientUnits="userSpaceOnUse" x1="724.0384" y1="864.1571" x2="735.9173" y2="864.1571">
		<stop  offset="0" style="stop-color:#F59A00"/>
		<stop  offset="1" style="stop-color:#E94075"/>
	</linearGradient>
	<polygon style="fill:url(#SVGID_00000006683140306698656130000004035003044876237220_);" points="728.91,830.88 724.04,897.43 
		735.92,897.43 730.13,830.88 	"/>
	
		<linearGradient id="SVGID_00000008861378205968555490000016031497812375902380_" gradientUnits="userSpaceOnUse" x1="179.0392" y1="787.8824" x2="900.9608" y2="787.8824">
		<stop  offset="0" style="stop-color:#F59A00"/>
		<stop  offset="1" style="stop-color:#E94075"/>
	</linearGradient>
	<path style="fill:url(#SVGID_00000008861378205968555490000016031497812375902380_);" d="M885.22,537.16
		c-14.99-56.71-42.08-106.65-84.07-148.05c-23.68-23.35-51.58-40.56-81.17-55.24c-9.18-2.16-17.65-6.1-25.9-10.55
		c-2.21-0.35-4.51-0.42-6.62-1.08c-5.12-1.58-10.25-3.04-15.4-4.4c0.34,3.05,0.52,6.14,0.52,9.28c0,46.02-37.44,83.45-83.45,83.45
		c-46.02,0-83.45-37.44-83.45-83.45c0-4.28,0.34-8.49,0.97-12.59c-67.51,17.43-120.79,60.31-160.96,126.44
		c-36.09,59.4-54.21,125.11-65.93,192.98c-10.11,58.57-11.37,118.07-19.45,176.87c-8.1,58.9-19.23,117.1-35.89,174.14
		c-12.81,43.85-27.49,87.15-40.23,131.02c-14.02,48.23,0.79,85.94,42.56,113.69c34.35,22.82,72.94,30.29,113.14,31.43
		c40.39,1.15,80.04-5.12,118.62-16.4c122.05-35.7,221.43-105.72,301.87-203.21c56.08-67.97,94.96-145.13,118.6-229.97
		C904.29,720.61,909.55,629.19,885.22,537.16z M633.23,604.6h49.88l13.71,99.76l13.71-99.76h50.26v163.53h-29.89V650.29
		l-18.85,117.84h-29.32l-19.99-117.84v117.84h-29.51V604.6z M576.82,597.82l39.75-18.33v29.13l-39.75,7.88V597.82z M566.2,620.95
		h58.94v28.44h-28.96v28.61h27.76v27.76h-27.76v33.75h30.84v28.61H566.2V620.95z M429.08,620.95h58.94v28.44h-28.96v28.61h27.76
		v27.76h-27.76v33.75h30.84v28.61h-60.82V620.95z M343.37,604.6h44.36c11.93,0,20.59,2.92,25.99,8.76
		c5.39,5.84,8.09,15.36,8.09,28.56v7.23c0,15.61-5.59,24.94-16.75,27.98c6.85,1.78,11.67,5.9,14.47,12.38
		c2.79,6.47,4.19,15.04,4.19,25.7c0,17.39-2.6,30.56-7.81,39.5c-5.21,8.95-14.6,13.42-28.18,13.42h-44.36V604.6z M391.94,939.47
		l-1.83-21.17h-15.84l-1.52,21.17h-25.43l12.64-130.82h44.32l12.49,130.82H391.94z M486.88,927.39
		c-4.69,8.05-13.14,12.08-25.36,12.08H421.6V792.29h39.92c10.74,0,18.53,2.63,23.39,7.88c4.85,5.26,7.28,13.82,7.28,25.7v6.51
		c0,14.05-5.03,22.45-15.08,25.19c6.17,1.6,10.51,5.31,13.02,11.14c2.51,5.83,3.77,13.54,3.77,23.13
		C493.9,907.49,491.56,919.33,486.88,927.39z M496.11,604.6h32.74v135.74h33.7v27.79h-66.44V604.6z M552.73,939.47h-54.07V808.64
		h52.39v25.28h-25.74v25.43h24.67v24.67h-24.67v30h27.41V939.47z M625.4,869.39c2,3.54,3,8.34,3,14.39l-0.34,55.68h-28.79V881.9
		c0-4.11-0.8-6.74-2.4-7.88c-1.6-1.14-4.51-1.71-8.74-1.71v67.16h-29.81V792.29h45.23c7.2,0,12.76,1.63,16.71,4.88
		c3.94,3.26,6.6,7.83,7.97,13.71c1.37,5.88,2.06,13.39,2.06,22.53c0,8.34-1.09,14.85-3.26,19.53c-2.17,4.69-5.94,7.94-11.31,9.77
		C620.17,863.62,623.4,865.85,625.4,869.39z M677.91,939.47h-29.47V820.56h-17.48v-28.27h64.42v28.27h-17.48V939.47z M739.72,939.47
		l-1.83-21.17h-15.84l-1.52,21.17H695.1l12.64-130.82h44.32l12.49,130.82H739.72z"/>
</g>
</svg>
