<?xml version="1.0" encoding="UTF-8" standalone="no"?>
<svg
   width="290"
   height="100"
   viewBox="0 0 290 100"
   fill="none"
   version="1.1"
   id="svg45"
   sodipodi:docname="LoginIcon.svg"
   inkscape:version="1.1.2 (0a00cf5339, 2022-02-04)"
   xmlns:inkscape="http://www.inkscape.org/namespaces/inkscape"
   xmlns:sodipodi="http://sodipodi.sourceforge.net/DTD/sodipodi-0.dtd"
   xmlns="http://www.w3.org/2000/svg"
   xmlns:svg="http://www.w3.org/2000/svg">
  <defs
     id="defs49" />
  <sodipodi:namedview
     id="namedview47"
     pagecolor="#ffffff"
     bordercolor="#666666"
     borderopacity="1.0"
     inkscape:pageshadow="2"
     inkscape:pageopacity="0.0"
     inkscape:pagecheckerboard="0"
     showgrid="false"
     inkscape:zoom="3.7184064"
     inkscape:cx="126.26377"
     inkscape:cy="42.491322"
     inkscape:window-width="1360"
     inkscape:window-height="731"
     inkscape:window-x="0"
     inkscape:window-y="0"
     inkscape:window-maximized="1"
     inkscape:current-layer="svg45" />
  <mask
     id="mask0_2027_7796"
     style="mask-type:luminance"
     maskUnits="userSpaceOnUse"
     x="0"
     y="0"
     width="117"
     height="66">
    <path
       d="M0 0H116.23V65.5948H0V0Z"
       fill="white"
       id="path10" />
  </mask>
  <g
     id="g1398"
     transform="matrix(0.2651798,0,0,0.2651798,-6.1550758,-84.675265)">
    <path
       fill="#f38819"
       opacity="1"
       stroke="none"
       d="m 183.3585,694.89661 c -5.0437,1.63171 -9.76693,0.0632 -14.94438,-0.11634 -2.34605,-1.61352 -2.67796,-3.76123 -2.88119,-5.94024 -0.23239,-2.49146 -0.14345,-4.9939 -0.1436,-7.49188 -0.004,-63.4679 -0.006,-126.93586 0.002,-190.40375 9.9e-4,-7.32083 -0.26508,-14.65116 0.62473,-22.44223 3.28869,-14.00431 8.96122,-26.45636 16.86813,-38.26368 2.38975,-1.12551 2.84089,0.45063 3.27463,1.89634 0.53137,1.77105 0.43519,3.61917 0.43751,5.44339 0.0172,13.45187 0.0161,26.90371 9.9e-4,40.35559 -0.002,1.99063 0.0455,3.99182 -0.76434,6.35824 -3.7231,2.61295 -4.43832,5.86863 -4.37747,9.81403 0.18216,11.81097 0.0442,23.62665 0.0741,35.44037 0.0167,6.56762 0.0517,6.57361 6.59358,6.9563 1.49774,0.0876 2.99591,0.13476 4.77326,1.0451 2.36586,4.16315 1.73401,8.22339 0.92978,12.69562 -0.39692,0.67444 -0.60578,1.09656 -0.8615,1.11798 -7.00713,0.58844 -7.28458,5.53308 -7.67456,10.98377 -0.58054,8.11401 -1.54204,16.20721 -2.27367,24.31652 -0.19897,2.20526 -0.29104,4.30274 0.88895,6.75684 0.8136,2.88043 0.70514,5.3858 0.70615,7.87726 0.0114,28.44812 0.0171,56.89624 -0.0102,85.34436 -0.003,2.63659 0.35156,5.3482 -1.24314,8.25641 z"
       id="path4" />
    <path
       fill="#f17b2c"
       opacity="1"
       stroke="none"
       d="m 193.22287,551.06238 c -0.23039,-4.22327 -0.22932,-8.10303 -0.22987,-12.43152 0.36087,-1.0351 0.89357,-1.38672 1.53111,-1.62909 9.63582,-3.66339 13.45256,-16.52869 7.21045,-25.20511 -1.78435,-2.4801 -1.87458,-3.95569 -0.005,-6.39102 3.10281,-4.04239 2.19357,-8.7869 1.14576,-13.34891 -0.36782,-1.60144 -1.37519,-3.00931 -1.81736,-5.06582 0.82336,-24.44523 0.24266,-48.46824 0.26571,-72.48826 0.002,-1.65112 -0.30162,-3.30856 0.39255,-5.37966 4.17928,-4.72171 9.24452,-7.45127 14.69385,-10.17142 2.76291,-1.16303 4.16374,-0.21308 4.78804,2.18738 0.46471,1.78671 0.41548,3.62735 0.41652,5.45477 0.0148,25.76349 0.0133,51.52701 -2.8e-4,77.2905 -0.001,1.99215 0.047,3.99554 -0.7818,6.3601 -2.25938,2.72196 -5.06251,2.24951 -7.63414,2.25525 -3.38917,0.008 -4.69642,1.52634 -4.68185,4.83628 0.0503,11.41143 0.0549,22.82376 -0.001,34.23501 -0.018,3.66065 1.63809,5.0495 5.12541,4.91937 1.97209,-0.0736 3.98079,-0.0546 6.23851,1.05872 1.91762,2.6366 1.77185,5.14252 0.74733,8.10718 -2.85466,2.45459 -5.9628,1.84894 -8.89146,1.83832 -3.43581,-0.0125 -5.24536,1.0979 -5.22006,4.86901 0.077,11.47242 0.0508,22.94635 0.0123,34.41926 -0.0115,3.44531 1.55072,4.72894 4.85034,4.70092 2.79836,-0.0238 5.67603,-0.36859 8.70883,1.2273 1.50583,2.08069 1.48836,4.09961 1.49257,6.08703 0.0616,29.0705 -0.007,58.14106 0.0407,87.21155 10e-4,0.66596 -0.0969,1.32434 -0.44224,2.42517 -6.05554,2.86878 -12.25173,4.00397 -18.79184,5.27423 -2.29163,-1.50341 -2.80907,-3.64117 -2.81729,-5.8136 -0.1176,-31.0595 -0.56861,-62.1203 0.33093,-93.61578 1.84877,-3.11041 1.9893,-6.08032 1.61153,-9.09479 -1.11611,-8.90576 -1.73627,-17.86285 -2.56575,-26.79309 -0.36759,-3.95746 -1.81653,-6.09845 -5.72208,-7.32928 z"
       id="path6" />
    <path
       fill="#f17536"
       opacity="1"
       stroke="none"
       d="m 220.20206,491.05255 c -0.20554,-29.23593 -0.18387,-58.13974 -0.24685,-87.04336 -0.004,-1.88306 1.16663,-4.62885 -2.7656,-5.06174 0.68669,-1.39056 2.36639,-1.71469 3.87368,-2.29602 3.06082,-1.18054 6.45084,-3.57474 9.19969,-3.00971 4.06373,0.83539 1.02988,5.42307 2.0599,8.2844 1.45835,4.05114 2.74679,8.07272 5.52356,11.85186 1.01808,1.60221 1.33068,3.00724 1.2667,4.5629 -0.89402,21.73239 -0.82548,43.46601 -0.0342,65.19971 0.0183,0.50317 -0.12543,0.9855 -0.41287,1.89798 -0.42421,0.66394 -0.63254,0.97565 -0.92308,1.09195 -7.21686,2.88949 -7.2188,2.88607 -7.21933,11.12951 -6.3e-4,9.65439 -0.001,19.30878 1.2e-4,28.96314 0.001,8.66723 0.002,8.66723 8.44856,10.98822 2.26753,4.31219 1.79219,8.44879 0.67627,13.0152 -0.84314,0.68963 -0.007,0.474 -0.62469,0.7254 -7.47962,3.04529 -7.46259,3.04535 -7.48549,11.50537 -0.0265,9.80121 0.0949,19.60272 -0.0615,29.87311 0.26205,25.93671 0.0528,51.40466 0.0977,76.87219 0.009,4.82843 0.009,9.64893 0.55217,14.90942 -3.55752,1.77588 -6.97928,3.08399 -10.77643,4.38245 -1.65705,-1.95959 -1.34475,-4.16101 -1.34527,-6.30383 -0.007,-29.58087 -0.005,-59.16175 -0.006,-89.21765 5.43584,-4.93372 7.6323,-10.62799 6.70557,-17.60822 -0.26495,-1.9956 -0.36774,-4.04382 -1.50041,-5.72772 -1.57343,-2.33911 -1.44617,-4.36261 -0.18381,-6.91681 3.23917,-6.55414 1.35953,-12.69 -4.86349,-17.07159 -0.16161,-2.56714 -0.16095,-4.79737 -0.16085,-7.44635 1.27103,-2.59021 5.85759,-1.31842 5.26876,-5.32435 -0.57709,-3.92596 -4.13269,-2.46203 -6.41179,-3.20886 -3.39385,-1.11212 -3.22071,-3.89136 -3.22341,-6.51855 -0.003,-2.60956 -0.31967,-5.51068 3.10257,-6.56073 0.47779,-0.14661 0.96942,-0.22797 1.46248,-0.29938 1.98577,-0.28741 4.15085,-0.34527 4.19469,-3.18158 0.0446,-2.88486 -2.11707,-3.0072 -4.12053,-3.16785 -3.31305,-0.26565 -4.62627,-2.15658 -4.62012,-5.29144 0.006,-2.99908 0.32681,-5.7102 4.09578,-6.30783 1.88783,-0.29935 4.15723,-0.14423 4.54825,-2.91064 0.42645,-3.01697 -2.23569,-3.27527 -4.09129,-4.7786 z"
       id="path8" />
    <path
       fill="#eb5063"
       opacity="1"
       stroke="none"
       d="m 313.67129,407.36197 c 6.08561,2.79059 10.87461,7.1232 15.38877,12.23953 -0.39743,4.79309 -0.47434,9.27841 -0.47275,13.77411 0.0185,52.40704 0.0129,104.81409 0.009,157.22113 -2.7e-4,3.82355 0.0214,7.64569 0.37204,11.94238 -4.08707,8.74134 -9.89972,15.85144 -15.93445,23.19373 -3.66772,1.04632 -3.35476,-1.82343 -3.39239,-3.42584 -0.21833,-9.29816 -0.69397,-18.60883 0.41739,-28.32947 2.9497,-2.65296 3.22567,-5.42914 2.7843,-8.86365 -1.43994,-11.20434 -1.5166,-22.56567 -3.89417,-34.11816 -0.51501,-4.43799 -0.89257,-8.43872 0.43924,-12.81079 1.84265,-1.91382 3.05161,-3.58515 3.02658,-5.96344 -0.16024,-15.22699 0.5658,-30.4617 -0.48858,-46.15033 1.08331,-24.31119 0.1932,-48.16968 0.48803,-72.01889 0.0265,-2.14515 -0.12094,-4.32642 1.25656,-6.69031 z"
       id="path10-8" />
    <path
       fill="#f38e12"
       opacity="1"
       stroke="none"
       d="m 165.81491,468.31183 c 1.97777,1.53271 1.14401,3.82178 1.14542,5.88717 0.0477,70.59183 0.0467,141.18369 0.013,211.77555 -0.001,2.68231 0.17373,5.29425 1.01071,8.24603 -4.95696,0.10065 -9.6821,-1.23462 -14.64041,-3.18066 -2.20467,-2.22058 -1.91948,-4.79877 -1.92319,-7.26569 -0.055,-36.60559 0.005,-73.21118 3.7e-4,-109.81671 -2.6e-4,-2.00031 -0.41837,-3.96582 -0.26763,-6.44727 -0.0317,-0.95282 -0.0256,-1.41833 0.13344,-2.20153 0.74149,-1.34406 0.77179,-2.52015 0.93442,-3.95881 -0.0786,-1.10705 -0.0504,-1.88733 0.1608,-3.01587 0.64176,-1.4038 0.67234,-2.55798 0.84634,-3.98138 2.91698,-27.15814 3.85849,-54.27173 10.7363,-80.58194 0.45544,-1.74225 1.08937,-3.43783 1.85046,-5.45889 z"
       id="path12" />
    <path
       fill="#ea4a69"
       opacity="1"
       stroke="none"
       d="m 329.33154,602.83484 c -2.64633,-0.85828 -2.33044,-2.97174 -2.33047,-4.95319 -0.001,-57.52185 -0.003,-115.04373 0.008,-172.56561 3.7e-4,-1.78659 -0.4082,-3.72903 1.79261,-5.20013 6.44546,5.18005 10.65872,11.95437 14.77703,19.22912 -0.74112,3.76166 -1.0065,7.22641 -1.00408,10.74417 0.0261,37.80811 0.0358,75.61618 -0.0143,113.42423 -0.005,3.83453 0.72647,7.6322 0.3396,11.95111 -3.29114,9.96216 -8.21371,18.61065 -13.56836,27.3703 z"
       id="path14" />
    <path
       fill="#ee664e"
       opacity="1"
       stroke="none"
       d="m 259.67499,423.8963 c 9.32052,-1.29251 16.4703,-5.36551 21.8797,-13.0723 3.35183,2.4264 2.97784,6.08414 2.99539,9.51816 0.0909,17.81784 0.0591,35.63629 0.0217,53.45438 -0.008,3.66348 0.29849,7.31866 0.0351,11.42874 -1.38574,2.16412 -3.30758,2.27496 -5.10092,2.20508 -4.05301,-0.1579 -5.06482,1.95526 -5.03561,5.58676 0.10192,12.66208 0.0273,25.32565 0.0473,37.98862 5.5e-4,0.33319 -0.002,0.66772 0.0274,0.99914 0.17777,2.02179 0.18091,4.22595 3.1156,4.10468 2.57712,-0.10651 2.69541,-2.11304 2.76874,-3.95978 0.1586,-3.99579 0.0434,-7.99646 0.064,-11.99506 0.0207,-3.99865 -0.10041,-8.00012 0.07,-11.99493 0.0751,-1.76147 -0.18911,-4.43451 1.75067,-4.69696 2.25928,-0.30576 2.22922,2.49026 2.53571,4.10776 1.76642,9.32376 3.79526,18.61441 4.2554,28.57541 -0.8764,3.27594 -0.28879,6.31158 -1.46817,9.49877 -2.3182,2.18464 -4.93191,1.94202 -7.32727,1.70386 -4.28287,-0.42596 -7.03818,0.95111 -8.27896,5.56043 -3.35083,-2.83753 -6.20654,-6.18262 -11.28299,-6.771 -1.49887,-2.64483 -2.2222,-5.06921 -1.12857,-8.06604 1.9722,-1.62439 4.02484,-1.39953 5.99744,-1.54455 1.9382,-0.14258 3.7406,-0.43433 3.69534,-3.00458 -0.0377,-2.14386 -1.48779,-2.65222 -3.26456,-3.03717 -6.07324,-1.3158 -6.74493,-2.32813 -6.47522,-8.21912 0.15122,-3.30347 1.361,-5.37897 4.91565,-5.64911 1.87433,-0.14239 3.77085,-0.4928 3.87213,-2.97272 0.11567,-2.83166 -1.97738,-3.12686 -4.03204,-3.29348 -3.62698,-0.29416 -4.70734,-2.52515 -4.70688,-5.78476 4.3e-4,-3.2095 0.94339,-5.53763 4.58829,-5.91116 2.03387,-0.20847 4.22714,-0.53312 4.08221,-3.30591 -0.16711,-3.19709 -2.77102,-2.74683 -4.85748,-2.87976 -2.48047,-0.15805 -4.99817,0.19766 -7.7915,-0.74576 -0.79457,-0.50256 -1.06661,-0.93 -1.14331,-1.84223 1.26846,-2.57006 3.6499,-2.29278 5.61102,-2.89926 1.24463,-0.38482 2.60135,-0.40906 3.77035,-1.05295 1.71439,-0.94421 2.07636,-2.58966 1.63956,-4.23825 -0.54266,-2.04837 -2.0787,-0.84506 -3.23205,-0.62588 -1.15467,0.21939 -2.28129,0.51907 -3.19413,-1.15839 -1.27395,-9.67492 -0.4804,-19.00363 -0.64975,-28.31485 -0.13018,-7.15796 -0.0501,-14.32043 -0.01,-21.48077 0.0111,-1.99222 -0.0631,-4.01218 1.24082,-6.21506 z"
       id="path16" />
    <path
       fill="#ef6d3f"
       opacity="1"
       stroke="none"
       d="m 255.20123,488.85608 c -0.22778,0.63232 -0.22087,0.98831 -0.2092,1.6113 -2.02105,2.86191 -2.45484,5.82333 -2.52569,9.06347 -0.20883,9.55231 0.84167,19.13553 -0.86447,29.07413 -0.47823,0.62488 -0.7235,0.83337 -1.41114,1.24524 -0.92216,0.33136 -1.39276,0.49402 -1.89244,0.54236 -9.39672,0.90869 -10.97027,-0.37305 -10.85687,-9.68408 0.13912,-11.42249 -0.62526,-22.85752 0.49773,-34.75507 -2.13501,-21.67703 -0.41075,-42.92828 -0.88123,-64.14581 -0.0504,-2.27313 0.6005,-4.56183 0.91533,-7.2699 5.87993,5.33942 12.61064,9.17215 21.60277,8.89197 0.42325,18.8782 0.42084,37.64462 0.41513,56.86383 -1.57971,3.02957 -4.05469,5.08423 -4.78992,8.56256 z"
       id="path18" />
    <path
       fill="#f28221"
       opacity="1"
       stroke="none"
       d="m 200.75513,592.86664 c 0.24279,30.93426 0.2612,61.54608 0.21568,92.15784 -0.004,2.68298 0.21295,5.28662 1.0092,8.24517 -3.36436,0.87311 -6.74379,1.34607 -10.55545,1.76215 -1.17853,-0.75873 -2.06856,-0.52777 -3.18454,-0.22278 -1.60646,0.38403 -2.96448,0.54816 -4.72507,0.61505 -0.44069,-33.83887 -0.47883,-67.58056 -0.51744,-101.77911 2.67461,-2.15546 5.54268,-3.24793 6.65615,-7.02258 0.84556,-2.8664 5.2131,-2.17988 6.2942,1.12292 0.83179,2.54108 2.4059,3.80902 4.80727,5.12134 z"
       id="path20" />
    <path
       fill="#f5950b"
       opacity="1"
       stroke="none"
       d="m 150.98828,567.39783 c 2.01625,2.19665 2.02666,5.16296 2.02506,8.17382 -0.0205,38.13386 -0.0137,76.26764 -0.0144,114.86304 -5.66266,-1.22308 -10.4839,-4.40185 -14.88362,-8.2063 -9.78082,-8.45733 -13.06728,-19.05011 -9.49387,-31.46704 5.14556,-17.87976 10.80211,-35.61517 15.76093,-53.54492 2.67499,-9.672 4.35181,-19.62018 6.60591,-29.8186 z"
       id="path22" />
    <path
       fill="#ef6d3f"
       opacity="1"
       stroke="none"
       d="m 259.69263,537.83002 c 0.634,2.53527 0.96621,4.72522 1.30023,7.28412 -1.2609,2.7821 -3.64508,2.38592 -5.65817,2.34558 -3.75083,-0.0751 -4.85036,1.77276 -4.82961,5.20031 0.0661,10.91138 0.40184,21.84198 -0.12323,32.7284 -0.28996,6.01178 3.73291,5.95434 7.72459,7.33966 1.56791,2.25531 1.46488,4.45068 1.47767,6.604 0.13955,23.45801 -0.20264,46.91742 0.19302,70.37488 0.009,0.50891 -0.16089,0.98157 -0.52145,1.89087 -5.28608,4.09747 -11.01606,6.47693 -16.93512,9.20544 -1.79903,-1.37805 -1.8698,-3.24096 -1.87441,-5.05828 -0.0665,-26.20637 -0.13937,-52.41285 0.0295,-78.61915 0.005,-0.8305 0.15432,-1.6502 0.48068,-2.87927 0.43638,-1.02472 0.84868,-1.53186 1.41785,-1.90368 1.36134,-0.88929 3.15419,-1.51368 2.79983,-3.64216 -0.36446,-2.18914 -2.28107,-2.20343 -3.87865,-2.34722 -3.64009,-0.32795 -4.70015,-2.57807 -4.66581,-5.79944 0.0327,-3.07306 -0.01,-6.14386 4.07629,-6.82556 1.61752,-0.26984 3.51524,-0.44446 3.53523,-2.71454 0.0235,-2.67035 -2.24194,-2.48285 -3.93794,-2.80182 -2.62811,-0.49426 -3.54576,-2.21662 -3.57732,-4.62293 -0.0315,-2.40124 0.16803,-4.68762 3.00826,-5.617 1.76205,-0.57672 4.39319,-0.21924 4.4247,-3.05329 0.0347,-3.11743 -3.28752,-2.17126 -4.95381,-3.8645 -0.20841,-4.2091 -0.20791,-8.09362 -0.20829,-12.42724 2.82936,-3.12085 6.364,-1.71216 10.04174,-2.08026 0.75699,0.0266 1.06005,0.0291 1.818,0.0255 3.18242,-0.002 5.95679,-0.41028 8.83622,1.25763 z"
       id="path24" />
    <path
       fill="#ea4772"
       opacity="1"
       stroke="none"
       d="m 343.0914,575.68689 c -1.7363,-2.59454 -2.10977,-5.65515 -2.10779,-8.8396 0.025,-40.16083 0.007,-80.32165 0.041,-120.48245 0.002,-2.22721 -0.76694,-4.7854 2.24713,-6.48853 9.13724,14.80719 12.88156,31.31897 14.51779,48.30197 2.92023,30.31024 -3.0018,59.26538 -14.69812,87.50861 z"
       id="path26" />
    <path
       fill="#ed5c55"
       opacity="1"
       stroke="none"
       d="m 287.13379,545.88507 c 0.11218,-3.0733 -0.69208,-5.81323 0.70041,-8.67944 8.9136,-1.62116 8.90384,-1.62281 10.43429,-10.68891 1.10364,-6.53753 2.02231,-13.1076 3.37964,-19.60031 0.22959,-1.09805 0.43503,-2.694 1.68528,-2.74646 1.73709,-0.0729 1.83972,1.72495 1.91168,2.95761 0.46402,7.94812 0.22561,15.909 0.16088,23.862 -0.0263,3.22968 0.98633,5.41718 4.32615,6.85895 0.26477,4.22522 0.26593,8.11304 0.2691,12.44568 -2.22037,2.9668 -5.25104,2.01623 -7.96695,2.18976 -2.76138,0.17627 -4.31381,1.18744 -4.49731,4.14154 -0.74295,11.96057 -2.80536,23.80847 -3.08701,36.26355 0.36365,17.34668 -0.21304,34.2456 0.36981,51.60565 -4.84405,5.96374 -10.5892,10.46381 -16.80932,14.8891 -3.77585,-0.0542 -3.37851,-2.89209 -3.50339,-4.98822 -0.33505,-5.62409 -0.12479,-11.26733 -0.13049,-16.90277 -0.0125,-12.43213 -0.0385,-24.86432 0.0214,-37.29621 0.0126,-2.61395 -0.30988,-5.36663 2.15494,-7.7713 8.96689,-1.95214 8.96103,-1.95214 8.96917,-11.13659 0.006,-6.95685 -0.0645,-13.91425 0.0421,-20.87037 0.0355,-2.3117 0.15237,-4.55145 2.26202,-6.26672 4.7905,-3.89484 4.67734,-4.72784 -0.69247,-8.26654 z"
       id="path28" />
    <path
       fill="#ee6649"
       opacity="1"
       stroke="none"
       d="m 278.34241,592.5907 c -2.40271,0.63489 -2.34107,2.18866 -2.34049,3.72839 0.007,19.94605 0.008,39.89209 0.0153,59.83814 3.7e-4,1.01056 0.11664,1.99688 1.30576,3.04846 -5.04532,5.26922 -11.38642,8.91369 -17.96881,12.76391 -1.20328,-2.6607 -1.3895,-5.43249 -1.38337,-8.27679 0.0503,-23.2616 0.0261,-46.52338 0.0211,-70.25586 -2.7186,-6.86664 -1.3833,-13.4743 -0.914,-20.01093 0.10852,-1.51135 1.24533,-2.81878 3.03195,-2.73321 1.75534,0.084 2.56241,1.42664 2.91324,2.95648 0.78812,3.43683 0.34253,6.94287 0.44473,10.41864 0.0438,1.49188 -0.0377,2.98792 0.1778,4.47309 0.24911,1.71728 1.15701,2.68719 2.97146,2.67901 1.91071,-0.009 2.75992,-1.22162 2.74607,-2.85931 -0.0502,-5.92993 1.19449,-11.96649 -1.06976,-17.73432 -0.72227,-1.83984 -0.86857,-3.45227 0.11953,-5.20752 1.81668,-3.22717 1.24387,-7.2069 3.54807,-10.71026 3.86093,-1.53662 6.90878,-0.44708 7.11639,3.18756 0.65253,11.42248 1.45914,22.89191 -0.73492,34.69452 z"
       id="path30" />
    <path
       fill="#064eaf"
       opacity="1"
       stroke="none"
       d="m 795.49298,456.29388 c 14.04114,5.46134 20.80725,17.00049 18.35663,30.76429 -2.27191,12.76013 -12.46289,21.25106 -26.56653,21.83105 -6.64117,0.2731 -13.30432,-0.0197 -19.95068,0.17679 -2.65857,0.0786 -3.35791,-0.79376 -3.33979,-3.3891 0.11036,-15.79742 0.0493,-31.59607 0.0638,-47.39429 10e-4,-1.58111 -0.5091,-3.51223 2.24249,-3.39074 9.60236,0.42407 19.28833,-1.04938 29.19409,1.402 z"
       id="path32" />
    <path
       fill="#ed5c55"
       opacity="1"
       stroke="none"
       d="m 284.12738,485.89078 c -1.08112,-2.58823 -1.15414,-4.87845 -1.14957,-7.22281 0.0373,-19.10675 -0.004,-38.21368 0.0445,-57.32038 0.008,-3.33276 -0.0729,-6.622 -1.13495,-10.2774 1.84842,-5.06461 3.6918,-9.68948 3.38843,-14.83795 -0.1091,-1.85129 0.70813,-2.09552 2.47339,-1.75488 4.13333,0.79757 7.79241,2.78115 11.93823,4.43963 1.44842,1.68753 0.97946,3.39679 0.97613,5.03247 -0.0543,26.80722 -0.31704,53.61484 0.0845,80.87317 -3.54074,5.87692 -3.05329,12.2367 -4.19138,18.20441 -0.61993,3.25055 -0.92325,6.5665 -1.47543,9.83563 -0.16275,0.9635 -0.5351,2.07745 -1.77439,2.02283 -0.84902,-0.0374 -1.35312,-0.86664 -1.75668,-1.59821 -0.74255,-1.3461 -0.82379,-2.84799 -0.99295,-4.33151 -0.60132,-5.27426 -1.55658,-10.50137 -2.1521,-15.77493 -0.33563,-2.97254 -1.34445,-5.44541 -4.27774,-7.29007 z"
       id="path34" />
    <path
       fill="#034cae"
       opacity="1"
       stroke="none"
       d="m 385.67133,507.43689 c -0.0384,-16.42969 0.0278,-32.40524 -0.10685,-48.37909 -0.0262,-3.10416 0.60077,-4.33301 4.06473,-4.24902 10.31113,0.24997 20.63702,0.27444 30.94699,0.002 4.25092,-0.1123 3.45005,2.48148 3.35761,4.8194 -0.093,2.35028 1.30569,5.52667 -3.43564,5.29699 -6.47464,-0.31366 -12.97946,0.0494 -19.46405,-0.1351 -2.8996,-0.0826 -4.46222,0.5257 -3.97489,3.78946 0.19443,1.30222 0.16898,2.67493 0.005,3.98554 -0.37964,3.02426 0.76496,4.08902 3.86432,3.98694 6.31656,-0.2081 12.65478,0.15646 18.96497,-0.13224 4.74997,-0.21728 3.2789,3.01636 3.40585,5.34861 0.13174,2.41989 0.75693,5.02475 -3.48288,4.77139 -5.96927,-0.35672 -11.98398,0.0982 -17.96335,-0.16089 -3.53946,-0.15332 -4.9939,0.61188 -4.86673,4.58142 0.25711,8.02631 0.01,8.03406 8.18332,8.0343 5.32498,1.5e-4 10.65729,0.16934 15.97229,-0.0607 3.28323,-0.14209 3.19656,1.93207 2.73685,3.8223 -0.51688,2.12527 2.1969,6.04465 -2.28772,6.15008 -11.47538,0.26975 -22.96161,0.0807 -34.44348,0.0667 -0.72467,-8.9e-4 -1.24082,-0.34992 -1.47586,-1.53815 z"
       id="path36" />
    <path
       fill="#0850b0"
       opacity="1"
       stroke="none"
       d="m 854.45764,469.0506 c 5.51178,-0.67365 9.97034,0.71927 13.72803,4.25201 1.59112,-2.82657 8.00207,-4.70685 10.77319,-3.38882 1.49146,0.70935 0.96015,1.97366 0.96295,3.01452 0.0311,11.49524 0.18073,22.99445 -0.0661,34.48474 -0.19037,8.86368 -5.1867,14.60911 -13.76611,16.64359 -6.5072,1.54309 -12.89886,1.29987 -19.02942,-1.54962 -5.76227,-2.67835 -6.0227,-4.95349 -1.58191,-9.51758 1.3252,-1.362 1.94885,-0.54065 2.82196,0.17279 3.00464,2.4552 6.55237,3.13245 10.29096,3.14594 7.85669,0.0283 11.2409,-3.92621 10.31768,-12.50663 -6.65503,5.60709 -13.89306,6.99076 -21.117,2.06729 -7.3515,-5.0104 -8.4621,-12.86889 -7.42798,-20.9681 1.03388,-8.09803 5.17688,-13.94388 14.09375,-15.85013 z"
       id="path38" />
    <path
       fill="#034cae"
       opacity="1"
       stroke="none"
       d="m 400.99945,567.89819 c 4.32828,0.0371 8.16864,-0.0886 11.98721,0.14392 9.16254,0.55799 15.59421,7.05426 16.02723,15.97431 0.47595,9.80365 -5.10581,16.948 -14.64838,18.14795 -4.60159,0.57867 -9.30307,0.53161 -13.95551,0.47168 -2.64346,-0.0339 -3.48358,0.875 -3.36599,3.46173 0.18139,3.9895 -0.1171,8.00238 0.10174,11.98816 0.15863,2.88916 -0.44641,4.47656 -3.74307,3.95361 -1.29993,-0.20618 -2.68439,-0.19708 -3.98761,-10e-4 -3.16394,0.47503 -3.88538,-0.86438 -3.85715,-3.87983 0.14508,-15.49011 0.15604,-30.98321 -0.006,-46.47296 -0.0331,-3.15118 0.91361,-4.06414 3.96051,-3.84802 3.6463,0.25854 7.32499,0.061 11.48743,0.0609 z"
       id="path40" />
    <path
       fill="#034cae"
       opacity="1"
       stroke="none"
       d="m 666.69721,610.15552 c -1.32056,-4.63434 -1.28406,-8.97461 -0.55732,-13.24939 2.21948,-13.05689 16.1532,-20.45264 28.88568,-9.82392 0,-5.54638 0.15644,-10.60223 -0.0607,-15.64196 -0.12341,-2.8642 0.83289,-3.68085 3.64002,-3.59803 8.52325,0.25165 6.81793,-0.6939 6.87244,6.84479 0.10351,14.31323 0.056,28.62799 -0.001,42.94177 -0.008,1.90198 0.97272,5.02088 -2.7384,4.28357 -2.85992,-0.56817 -7.77502,2.9715 -7.99731,-4.10992 -5.34894,4.68957 -11.09955,6.55133 -17.65595,4.13238 -5.38672,-1.98742 -8.64691,-5.97625 -10.3872,-11.77929 z"
       id="path42" />
    <path
       fill="#f28221"
       opacity="1"
       stroke="none"
       d="m 201.5907,408.86597 c 1.22181,2.67886 1.45089,5.60858 1.44151,8.62527 -0.063,20.26798 -0.0612,40.53635 -0.002,60.80432 0.009,3.0069 -0.19261,5.94358 -1.01775,9.2554 -5.49516,-0.0675 -11.11889,0.51731 -16.69403,-1.9693 -0.31305,-16.96868 -0.2894,-33.65341 -0.35992,-50.33773 -0.007,-1.68875 0.84158,-3.68354 -1.43257,-5.13193 4.25485,-8.31128 10.36509,-15.2449 18.06471,-21.24603 z"
       id="path44" />
    <path
       fill="#ec555b"
       opacity="1"
       stroke="none"
       d="m 300.25372,485.93085 c -0.96026,-2.3277 -1.28897,-4.23447 -1.285,-6.27521 0.0482,-24.78296 0.0401,-49.56607 0.0135,-74.34909 -0.002,-1.8537 0.13525,-3.64371 0.92868,-5.76059 5.09979,1.09729 9.26483,4.26593 13.90658,7.16785 0.18283,22.07888 0.17347,43.87341 0.19071,65.66796 0.003,4.14399 0.14795,8.29081 -0.99716,12.73649 -3.94757,3.84976 -8.21241,2.74865 -12.75727,0.81259 z"
       id="path46" />
    <path
       fill="#034cae"
       opacity="1"
       stroke="none"
       d="m 469.99155,480 c -3e-5,8.32504 0.11969,16.15341 -0.0949,23.97256 -0.0463,1.68735 1.77365,4.48929 -1.95749,5.05149 -5.59265,0.84262 -7.82068,0.0305 -8.95148,-3.58683 -2.13348,1.1857 -4.1604,2.64664 -6.4155,3.51511 -7.57568,2.91748 -16.14016,-0.45834 -19.82867,-7.95145 -3.74902,-7.61599 -3.78439,-15.47683 -0.001,-23.07873 4.83435,-9.715 15.08005,-11.53784 26.26276,-4.55789 1.13318,-5.01929 0.67453,-9.94153 0.43225,-14.73752 -0.25473,-5.0416 3.0549,-3.6181 5.57376,-3.69669 2.48487,-0.0774 5.33838,-1.01101 5.08176,3.59775 -0.38806,6.97101 -0.10111,13.97958 -0.10098,21.4722 z"
       id="path48" />
    <path
       fill="#449ed6"
       opacity="1"
       stroke="none"
       d="m 253.28236,349.71393 c -3.50328,2.03332 -5.54091,5.16449 -8.27075,7.52801 -1.47421,1.27643 -1.55925,2.76496 -0.94762,4.47132 1.09583,3.05709 1.19161,6.16998 0.0618,9.21328 -0.73626,1.98325 -0.21626,3.35538 1.17914,4.8649 1.68005,1.81748 3.12503,0.97275 4.85217,0.28241 1.66362,-0.66495 3.4616,-0.99374 5.54767,-1.37146 1.87616,2.84696 0.67246,5.81897 0.92743,9.00519 -0.73562,1.40225 -1.80699,1.88837 -2.77693,2.52582 -7.46333,4.90497 -7.68454,13.16702 -0.50528,18.40393 0.80356,0.58615 1.70721,1.0267 2.73863,1.91418 1.06171,3.30042 0.65842,6.48355 1.14997,9.84119 -14.71286,-0.78787 -23.78865,-14.82477 -18.46563,-28.31769 1.14228,-2.89548 1.32772,-4.9559 -1.51124,-7.11249 -0.51055,-0.44729 -0.81171,-0.65203 -1.12207,-0.64331 -6.63794,0.1865 -7.58119,-1.02572 -5.80127,-8.02099 4.77421,-5.27558 4.65047,-6.91916 -0.91423,-12.49323 -0.96382,-3.09067 -0.40715,-5.63492 1.32821,-8.33407 5.39719,0.37335 11.33629,-2.7663 13.8433,-7.33612 0.65764,-1.19877 0.2584,-2.20237 0.0236,-3.32557 -1.81621,-8.6878 0.31456,-13.77484 8.07762,-18.5917 2.28056,2.74149 0.12883,6.26901 2.1048,9.39419 -0.0402,2.76557 -0.42333,5.16904 0.003,7.93686 -2.13437,3.31519 -0.80165,6.72544 -1.5219,10.16535 z"
       id="path50" />
    <path
       fill="#f07337"
       opacity="1"
       stroke="none"
       d="m 241.66406,592.81628 c 0.32878,29.27967 0.32581,58.19568 0.31259,87.56958 -3.08769,1.83405 -6.16511,3.21015 -9.61404,4.59009 -2.15518,-1.97986 -2.4045,-4.33649 -2.39902,-6.91449 0.0597,-28.05169 0.0393,-56.10357 0.0446,-84.62628 3.68326,-2.7193 7.48199,-2.33099 11.65591,-0.6189 z"
       id="path52" />
    <path
       fill="#0850b0"
       opacity="1"
       stroke="none"
       d="m 448.73364,622.90527 c -8.07922,-0.10205 -13.17071,-3.28741 -14.78854,-9.09399 -1.34723,-4.83551 -0.69867,-9.37689 3.17727,-12.80682 4.86121,-4.30195 10.62961,-4.14295 16.45423,-2.42127 1.70743,0.50476 3.26959,1.50116 4.90332,2.2746 1.80423,-6.68592 -0.56046,-10.15247 -7.26245,-10.50147 -2.86865,-0.14929 -5.86347,0.27674 -8.08588,2.01447 -3.01343,2.3562 -4.33035,1.85956 -6.21152,-1.41846 -2.23993,-3.90326 0.67579,-4.67932 2.78595,-5.88006 5.56125,-3.16449 11.65577,-3.83307 17.86274,-2.83692 7.33361,1.177 11.60684,5.59088 12.03653,13.10895 0.45462,7.95514 0.1574,15.9519 0.25268,23.92981 0.0212,1.77576 -0.44113,3.19018 -2.42883,2.67639 -2.79907,-0.72369 -6.61804,2.3728 -8.43558,-2.3064 -0.46609,-1.19989 -1.39111,0.06 -1.93536,0.41004 -2.42536,1.55993 -5.07422,2.42206 -8.32456,2.85113 z"
       id="path54" />
    <path
       fill="#064eaf"
       opacity="1"
       stroke="none"
       d="m 586.11981,485.84387 c 1.67285,0.82095 2.96637,1.50409 4.7088,2.42438 0.30359,-3.57227 1.11744,-6.98612 -2.25714,-9.12595 -4.7221,-2.99435 -9.7334,-2.3619 -14.1347,0.54334 -2.88697,1.9057 -3.95606,1.43176 -5.53888,-1.39835 -1.46436,-2.61816 -1.32514,-3.97873 1.31048,-5.53003 6.35175,-3.73855 13.11023,-4.78552 20.18866,-3.23901 6.86035,1.49884 10.42163,5.45309 10.79602,12.50076 0.43238,8.14203 0.20246,16.31794 0.3418,24.47775 0.0341,1.99384 -0.91125,3.01636 -2.65778,2.44144 -2.68023,-0.88229 -6.81451,2.79019 -8.18444,-2.61606 -0.16266,-0.64209 -1.64362,0.59626 -2.45417,1.06113 -4.06011,2.32849 -8.37146,3.27972 -12.95959,2.14758 -6.66327,-1.64422 -10.633,-7.01092 -10.16833,-13.51983 0.45739,-6.4065 4.76886,-10.58411 11.78668,-11.35883 3.01934,-0.33328 5.97552,0.0306 9.22259,1.19168 z"
       id="path56" />
    <path
       fill="#064eaf"
       opacity="1"
       stroke="none"
       d="m 716.19983,613.68689 c -4.56818,-8.77081 -4.39905,-17.03717 1.55267,-24.59998 5.41693,-6.8833 13.04315,-8.27221 21.16248,-6.67016 8.89276,1.75464 14.43469,8.46295 15.46893,17.83673 0.96893,8.78186 -3.38251,16.98602 -10.9361,20.61877 -8.06848,3.88031 -18.52899,2.29029 -24.5473,-3.7807 -0.92938,-0.9375 -1.68127,-2.05108 -2.70068,-3.40466 z"
       id="path58" />
    <path
       fill="#064eaf"
       opacity="1"
       stroke="none"
       d="m 667.99133,484.9805 c 3.0528,0.44766 5.13715,2.24551 7.71906,3.3414 0.34594,-3.68774 0.91516,-7.22705 -2.53174,-9.29114 -4.7674,-2.85486 -9.71661,-2.14654 -14.15643,0.72324 -2.54096,1.64245 -3.5282,1.63473 -5.21344,-1.14963 -1.8924,-3.12659 -1.18872,-4.57773 1.63745,-6.1619 6.08429,-3.41052 12.56897,-4.38461 19.2962,-3.05032 7.37152,1.46201 11.13147,6.05109 11.33557,13.67578 0.20056,7.49097 -0.0614,14.99488 0.16577,22.48441 0.0896,2.95331 -0.99694,4.04211 -3.6654,3.41205 -2.4231,-0.57215 -6.11414,2.18988 -7.1211,-2.67527 -0.13305,-0.64319 -1.6499,0.60022 -2.44952,1.07425 -3.24872,1.92585 -6.74493,2.81168 -10.49725,2.5726 -7.35382,-0.46862 -12.54511,-5.82498 -12.57483,-12.90286 -0.03,-7.14877 4.49994,-11.83105 12.19073,-12.4158 1.80341,-0.13712 3.64203,0.18884 5.86493,0.36319 z"
       id="path60" />
    <path
       fill="#064eaf"
       opacity="1"
       stroke="none"
       d="m 543.17432,604.10504 c 1.2e-4,5.14453 -0.18488,9.81482 0.0671,14.46155 0.16144,2.9776 -1.02533,4.01666 -3.67346,3.39844 -2.42334,-0.56568 -6.10119,2.16485 -7.11267,-2.67627 -0.13434,-0.64301 -1.63885,0.61249 -2.44946,1.07153 -4.72779,2.67712 -9.65515,3.54291 -14.84015,1.58362 -5.8699,-2.21814 -8.88291,-7.43231 -8.15128,-13.87915 0.62174,-5.47815 4.51935,-9.26447 10.58579,-10.25079 5.30926,-0.86323 10.18628,0.29736 14.99615,3.67889 0.56775,-3.71405 1.02997,-7.10388 -2.12048,-9.23932 -4.62744,-3.13654 -9.70807,-2.52863 -14.11261,0.31512 -3.0686,1.98114 -4.08954,1.48621 -5.85049,-1.49432 -1.73581,-2.9378 -0.64167,-4.0354 1.61154,-5.39044 6.14819,-3.69739 12.79962,-4.65723 19.69561,-3.26471 7.36457,1.48712 10.95368,6.06238 11.28809,13.71344 0.10889,2.49231 0.0491,4.99194 0.0663,7.97241 z"
       id="path62" />
    <path
       fill="#064eaf"
       opacity="1"
       stroke="none"
       d="m 961.5304,483.21606 c -2.7417,-6.10659 -9.61048,-7.87429 -16.12781,-3.81893 -3.20697,1.99545 -4.32135,1.79898 -6.22577,-1.42173 -2.28265,-3.86038 0.61169,-4.66568 2.70795,-5.8511 5.721,-3.23517 11.96698,-3.96863 18.34185,-2.79401 7.31763,1.3483 11.43384,6.03745 11.66663,13.43277 0.24573,7.80783 0.019,15.62952 0.14435,23.44281 0.0348,2.16898 -0.70465,3.34137 -2.80493,2.74536 -2.61963,-0.74344 -6.22937,2.25461 -7.97071,-2.33523 -0.48608,-1.28131 -1.91058,0.51254 -2.81946,0.98004 -4.6369,2.38513 -9.39111,3.25564 -14.40814,1.39065 -5.91864,-2.20016 -8.91748,-7.27411 -8.20813,-13.79446 0.61231,-5.62845 4.32489,-9.32526 10.41107,-10.36664 4.77002,-0.81616 8.01923,-0.15176 14.78235,3.03421 1.17218,-1.26642 0.48651,-2.80115 0.51075,-4.64374 z"
       id="path64" />
    <path
       fill="#064eaf"
       opacity="1"
       stroke="none"
       d="m 694.63269,495.03732 c -2.8454,-17.36572 9.33728,-29.4906 25.22375,-25.64035 9.99262,2.42185 15.8678,10.67856 15.28956,21.48758 -0.53522,10.00742 -7.31025,17.42304 -17.25446,18.88617 -10.77563,1.58545 -19.65265,-3.92001 -23.25885,-14.7334 z"
       id="path66" />
    <path
       fill="#064eaf"
       opacity="1"
       stroke="none"
       d="m 629.5481,620.6471 c -10.22138,-6.31922 -13.5849,-18.19959 -8.28687,-28.32624 4.87659,-9.32104 16.91064,-13.17346 27.2207,-8.71417 9.78394,4.23181 14.36237,15.7951 10.48273,26.47498 -4.04217,11.12701 -16.20764,15.62823 -29.41656,10.56543 z"
       id="path68" />
    <path
       fill="#034cae"
       opacity="1"
       stroke="none"
       d="m 515.76196,508.92065 c -1.96026,0.073 -3.47821,-0.071 -4.95395,0.11701 -2.93054,0.37338 -4.83172,-0.39777 -4.49954,-4.30588 -4.55868,3.46054 -9.04697,5.39722 -14.26742,5.23337 -7.27646,-0.22843 -11.65354,-4.13178 -11.88324,-11.37796 -0.27424,-8.65183 -0.0281,-17.31903 -0.14496,-25.97775 -0.0305,-2.2566 0.8883,-2.69031 2.93072,-2.80848 7.4845,-0.43298 7.47516,-0.51492 7.48221,6.76429 0.005,5.6622 -0.1282,11.33008 0.082,16.98492 0.19223,5.17157 2.72669,7.41864 7.5148,7.19577 5.1254,-0.23858 8.49424,-3.21326 8.53662,-7.7099 0.0628,-6.66119 0.20356,-13.3306 -0.0524,-19.98248 -0.15157,-3.93997 2.41413,-3.5336 4.54377,-3.09589 2.06326,0.42407 5.88821,-2.32654 5.88949,2.66809 0.003,11.6576 -0.0168,23.31519 -0.0671,34.97263 -0.002,0.41943 -0.42353,0.83703 -1.11103,1.32226 z"
       id="path70" />
    <path
       fill="#0850b0"
       opacity="1"
       stroke="none"
       d="m 634.42218,469.13019 c 2.13812,0.68771 3.94977,1.12823 5.54419,1.97687 6.04047,3.21496 6.10254,5.00689 0.96893,9.37121 -1.73401,1.47415 -2.48669,0.96408 -4.05536,-0.19501 -4.68206,-3.45953 -10.38519,-2.87536 -13.98175,1.07377 -3.83654,4.21258 -3.83465,11.83453 0.004,16.07186 3.55817,3.92774 9.2583,4.55866 13.99976,1.04663 4.48291,-3.32052 5.13244,1.77918 7.21667,3.16324 2.59626,1.72412 -0.21289,3.05774 -1.34881,4.11994 -1.96705,1.83929 -4.42139,2.83661 -7.05634,3.51095 -1.43487,0.36725 -3.54156,-0.0694 -3.90857,2.25141 0.6471,1.10724 1.80023,0.68438 2.7085,0.91638 2.50915,0.64087 4.1474,2.05243 4.47784,4.70874 0.34607,2.78143 -0.75305,4.85303 -3.1878,6.22205 -4.1352,2.32519 -8.31238,1.82617 -12.50147,0.17065 -1.49005,-0.58881 -2.05041,-1.50287 -1.25586,-3.09558 0.68476,-1.37244 1.38623,-2.20453 3.03681,-1.25977 2.1065,1.20569 4.3894,1.50043 6.74634,0.8617 1.22613,-0.33228 2.15063,-1.11695 2.00616,-2.45813 -0.15955,-1.48035 -1.36206,-1.8432 -2.6109,-1.59247 -3.78046,0.75903 -6.64612,0.77496 -4.79907,-4.51886 0.89941,-2.57779 -1.59009,-1.97858 -2.71332,-2.35791 -10.20154,-3.4448 -15.67542,-12.27616 -14.07617,-22.88407 1.80603,-11.97933 10.20752,-17.89883 24.78619,-17.1036 z"
       id="path72" />
    <path
       fill="#034cae"
       opacity="1"
       stroke="none"
       d="m 597.99792,567.89819 c 3.83173,0 7.16401,-0.002 10.49634,4.3e-4 5.08643,0.003 7.64228,4.18445 5.59784,8.98633 -0.54571,1.28174 -1.49212,1.0824 -2.42566,1.10449 -1.83178,0.0433 -3.66522,0.0161 -5.49798,0.0162 -7.72431,4.8e-4 -7.72431,2.4e-4 -7.72437,7.95831 -1.2e-4,10.66339 -0.13306,21.32947 0.0779,31.98871 0.0659,3.32397 -0.95538,4.18866 -4.18457,4.1319 -7.42523,-0.13062 -7.42828,0.0394 -7.42834,-7.24909 -6e-5,-10.99664 -0.11487,-21.99524 0.0736,-32.98865 0.0527,-3.07178 -0.75605,-4.27112 -3.87714,-3.88165 -1.80463,0.22528 -3.6604,0.0408 -5.49316,0.0407 -6.97345,-5.5e-4 -6.79242,0.002 -6.69013,-6.99054 0.0421,-2.88165 1.23523,-3.1872 3.5838,-3.15527 7.66284,0.10406 15.32813,0.0385 23.49182,0.0381 z"
       id="path74" />
    <path
       fill="#064eaf"
       opacity="1"
       stroke="none"
       d="m 781.26917,622.51709 c -7.21375,1.08228 -13.59699,-0.0781 -19.63386,-3.4364 -2.73022,-1.5188 -2.96582,-3.10559 -0.99456,-5.42145 1.42505,-1.67401 1.64959,-4.85236 5.3045,-2.18085 3.78967,2.77002 8.38501,4.09015 13.22308,3.25623 1.78132,-0.30707 3.65235,-0.9707 3.89667,-3.24957 0.25049,-2.33631 -1.41968,-3.26593 -3.22943,-3.78266 -3.50482,-1.00055 -7.09534,-1.70477 -10.5899,-2.73681 -6.25049,-1.84589 -9.24921,-5.46393 -9.22101,-10.82862 0.027,-5.14026 3.30633,-9.39825 9.04773,-11.18176 7.02783,-2.18304 13.73504,-1.10785 20.1803,2.39343 3.7525,2.03858 1.05731,3.95386 0.20318,6.02228 -1.03717,2.51135 -2.19427,2.47174 -4.34125,0.95575 -3.22131,-2.27448 -7.04602,-2.82794 -10.96368,-2.3399 -1.93268,0.24072 -3.69733,1.03881 -3.93823,3.15692 -0.23511,2.06689 1.58307,2.79052 3.16223,3.25567 2.69971,0.79529 5.47113,1.34351 8.20123,2.03955 7.96973,2.0318 11.40656,5.52655 11.51337,11.66547 0.11078,6.36334 -3.43439,10.18018 -11.82037,12.41272 z"
       id="path76" />
    <path
       fill="#ec555b"
       opacity="1"
       stroke="none"
       d="m 295.16913,644.82324 c -3.29483,-0.60644 -2.10459,-3.05645 -2.11463,-4.78168 -0.0895,-15.3742 -0.0503,-30.74926 -0.0464,-46.59405 3.02151,-2.03369 6.77527,-2.25086 7.70962,-6.92066 0.49805,-2.48925 4.74643,-2.04486 6.34329,0.66248 1.08826,1.84503 1.85895,3.87055 3.74607,5.65064 0.19314,9.6632 0.15729,18.97631 0.22983,28.28851 0.0121,1.55438 -0.73453,3.37207 1.34417,4.70618 -4.76434,6.91473 -10.63192,13.06811 -17.21197,18.98858 z"
       id="path78" />
    <path
       fill="#1c7fc1"
       opacity="1"
       stroke="none"
       d="m 276.7276,371.32709 c 1.42725,-1.81629 2.53873,-3.28333 3.87155,-4.50992 4.02557,-3.70484 7.0965,-6.91406 5.79627,-13.73963 -1.70563,-8.95373 6.79464,-16.45715 16.09466,-16.05963 9.12238,0.38993 15.66208,8.40677 14.54053,17.82477 -1.02597,8.61548 -9.96741,15.0835 -18.61017,12.84113 -3.31079,-0.85892 -5.1525,-0.22943 -7.32864,2.0704 -3.88663,4.10748 -8.08432,7.92072 -12.46543,12.03903 -3.66247,-2.72867 -3.556,-6.24978 -1.89877,-10.46615 z"
       id="path80" />
    <path
       fill="#064eaf"
       opacity="1"
       stroke="none"
       d="m 526.75281,479.90381 c 6.8529,-11.34879 20.99017,-14.64179 30.62579,-7.30881 1.31122,0.99787 4.56921,2.24408 2.15643,4.2955 -1.90124,1.6164 -2.76178,6.89752 -7.49499,3.32193 -4.6405,-3.50558 -10.41016,-2.77566 -13.95868,1.1908 -3.75073,4.19244 -3.70489,11.91806 0.0955,16.07751 3.54175,3.87641 9.2005,4.44812 13.97711,0.96695 4.44751,-3.2413 5.26904,1.70938 7.22443,3.20828 2.72131,2.08606 -0.53565,3.34787 -1.77582,4.35694 -6.37592,5.18744 -17.0495,5.30304 -24.30969,0.4682 -7.03046,-4.68185 -10.28461,-14.09491 -7.90546,-22.9758 0.29852,-1.11453 0.78851,-2.1778 1.36542,-3.6015 z"
       id="path82" />
    <path
       fill="#034cae"
       opacity="1"
       stroke="none"
       d="m 923.1853,509.96143 c -7.90857,-1.22669 -10.29791,-3.76227 -10.47888,-11.08121 -0.13562,-5.48575 -0.12244,-10.97934 10e-4,-16.46542 0.0541,-2.39521 -0.40423,-3.96247 -3.20721,-3.51652 -3.7074,0.58988 -3.53638,-1.82611 -3.42999,-4.28265 0.10162,-2.34601 -0.83069,-5.32416 3.39477,-4.77933 3.8822,0.50058 3.16309,-2.35223 3.19763,-4.582 0.0919,-5.92349 3.06159,-7.93808 8.89026,-6.23251 2.29688,0.67209 1.44629,2.37863 1.40479,3.62473 -0.14282,4.28616 -0.63025,8.11187 6.02478,7.40743 3.78705,-0.40087 1.54181,3.45987 1.95038,5.35376 0.38733,1.79535 0.31634,3.98075 -2.56317,3.44776 -4.95679,-0.91748 -5.75098,1.60821 -5.41718,5.77591 0.3045,3.80163 0.018,7.64731 0.0967,11.47143 0.0535,2.60361 1.18896,5.16352 4.02527,4.44992 5.0733,-1.27636 3.93561,2.8787 4.7038,4.95475 1.16479,3.14773 -1.80085,3.36511 -3.73914,3.9328 -1.40741,0.41214 -2.94763,0.37079 -4.85419,0.52115 z"
       id="path84" />
    <path
       fill="#2c8cca"
       opacity="1"
       stroke="none"
       d="m 276.62778,371.00195 c 0.42334,3.28229 0.0426,6.75602 1.59436,10.49362 -1.13916,1.99704 -1.25595,3.32145 -0.43055,5.35752 5.17865,12.77444 0.0532,23.91012 -13.45523,29.04922 -0.82101,0.0519 -1.27551,0.11954 -2.06304,0.28256 -1.60621,0.87778 -3.01774,0.74372 -4.82755,0.60462 -1.30478,-2.90564 -3.4146,-5.57468 -1.42664,-9.09049 0.52774,-1.72424 1.79081,-1.7789 2.9119,-1.87033 4.86063,-0.39645 8.17203,-2.85015 9.48877,-7.51764 1.41397,-5.01223 -0.26358,-8.47705 -5.43405,-12.22671 -0.26956,-0.19547 -0.53556,-0.39554 -1.02567,-0.88236 -0.42303,-0.65158 -0.60565,-1.03555 -0.83423,-1.39245 -0.0244,-0.0382 -0.18066,0.19336 -0.56182,0.75091 -1.60737,0.63779 -2.85648,0.57749 -4.29535,-0.42919 -0.85134,-3.09082 -1.34333,-5.87238 -0.2298,-8.99186 1.35635,-1.07788 2.77972,-0.87802 4.54599,-0.44345 0.94205,0.30307 1.48764,0.48581 2.12656,1.11945 6.11917,2.59741 10.17993,-0.16806 13.91635,-4.81342 z"
       id="path86" />
    <path
       fill="#034cae"
       opacity="1"
       stroke="none"
       d="m 982.05212,496.98364 c 6e-5,-12.98297 0.15937,-25.47268 -0.0961,-37.95392 -0.0776,-3.79068 1.39307,-4.61923 4.60279,-4.13119 2.52948,0.38464 6.0758,-1.65445 5.97003,3.81149 -0.29962,15.47739 -0.30585,30.96845 0.005,46.44544 0.10834,5.397 -3.32526,3.52835 -5.90021,3.85363 -3.06567,0.3873 -5.18195,-0.0643 -4.64252,-4.04544 0.33228,-2.45227 0.0614,-4.98626 0.0614,-7.98001 z"
       id="path88" />
    <path
       fill="#064eaf"
       opacity="1"
       stroke="none"
       d="m 490.43347,610.96686 c -3e-5,2.32324 -0.22793,4.18908 0.0459,5.97802 0.64288,4.19971 -0.99829,5.18549 -5.1257,5.2428 -4.39829,0.0611 -5.59546,-1.07141 -5.4231,-5.48925 0.37613,-9.6391 0.0238,-19.30475 0.20386,-28.95514 0.0315,-1.68647 -1.70496,-5.09534 2.15424,-4.76435 3.14187,0.26941 8.17877,-2.88739 8.61553,4.04138 1.56818,-1.05029 2.84693,-2.10443 4.29111,-2.82885 2.31534,-1.16126 5.35575,-3.45435 7.1853,-1.57172 1.37027,1.41003 0.49176,5.03815 0.54899,7.68005 0.0386,1.78009 -1.32081,1.4314 -2.45157,1.57844 -9.09424,1.18231 -10.04364,2.25195 -10.04431,11.10626 -1.9e-4,2.49664 -7e-5,4.99334 -2.5e-4,7.98236 z"
       id="path90" />
    <path
       fill="#2c8cca"
       opacity="1"
       stroke="none"
       d="m 253.33939,350.2135 c -0.15838,-3.42489 -3.31852,-6.83917 0.54232,-10.13074 1.76267,-0.67965 3.05085,0.37705 4.52625,0.53138 2.12634,0.22235 3.9844,-0.16895 5.21295,-2.08841 1.08823,-1.70026 1.15817,-3.45273 -0.0902,-5.09876 -1.34335,-1.77127 -3.19586,-2.25668 -5.31934,-1.83401 -1.13809,0.2265 -2.18063,0.79965 -3.6921,0.92428 -2.35221,-3.00488 -2.55663,-6.19714 -1.49085,-9.92886 1.10008,-0.77817 2.1951,-1.16922 3.64383,-1.53461 1.79663,-0.0636 3.24039,-0.0498 4.99317,0.0126 7.84909,1.52161 12.78207,6.70054 13.30691,13.66617 0.578,7.67133 -3.4285,13.42951 -11.61932,16.2031 -0.82547,0.0496 -1.28507,0.10162 -2.07828,0.26574 -0.75479,0.18726 -1.17285,0.28977 -1.90595,0.29425 -1.39843,-0.51925 -2.56872,-0.54528 -4.01657,-0.76446 -0.79991,-0.0473 -1.26358,-0.16837 -2.01281,-0.51764 z"
       id="path92" />
    <path
       fill="#034cae"
       opacity="1"
       stroke="none"
       d="m 830.62744,469.87826 c 2.32129,0.54221 1.76648,2.11048 1.77118,3.31479 0.0422,10.7779 -0.13507,21.55936 0.0903,32.33268 0.11756,5.62185 -3.84967,2.96576 -6.19873,3.43295 -2.86835,0.57052 -4.4375,-0.15225 -4.33459,-3.79309 0.28088,-9.94098 0.38653,-19.90732 -0.0297,-29.83884 -0.19897,-4.74652 1.40662,-6.17627 5.76093,-5.49341 0.80951,0.12696 1.65533,0.0216 2.94061,0.0449 z"
       id="path94" />
    <path
       fill="#034cae"
       opacity="1"
       stroke="none"
       d="m 890.05212,481.02112 c 0,-1.8291 -1.8e-4,-3.16144 -6e-5,-4.49381 5.5e-4,-6.76913 1.74439,-8.05047 8.48175,-6.71997 1.95862,0.38672 1.87952,1.50812 1.88068,2.83942 0.01,11.15848 -0.0907,22.3183 0.058,33.47479 0.0558,4.18695 -2.84668,2.54303 -4.80884,2.88449 -4.42596,0.77008 -6.01135,-0.81116 -5.72784,-5.51126 0.44049,-7.30139 0.11633,-14.64892 0.11633,-22.47366 z"
       id="path96" />
    <path
       fill="#56ade0"
       opacity="1"
       stroke="none"
       d="m 230.6044,351.07971 c 0.0831,2.73511 -0.25554,5.37943 -0.58939,8.43402 -0.33958,1.00107 -0.86183,1.3945 -1.46423,1.67783 -2.38144,1.11993 -4.3174,2.6402 -3.96385,5.59308 0.3324,2.77618 2.60532,3.55566 4.88426,4.21838 0.47536,0.13821 0.90491,0.38947 1.43271,1.01401 0.79127,2.53351 -1.83966,4.80945 0.673,7.16089 1.81437,1.69793 3.86821,-1.03412 5.38237,1.20318 -3.51696,0.8039 -6.987,2.21198 -10.75422,1.37259 -7.94322,-1.76977 -13.37819,-9.03674 -12.44869,-16.83453 1.03749,-8.70365 7.19779,-13.92786 16.84804,-13.83945 z"
       id="path98" />
    <path
       fill="#0850b0"
       opacity="1"
       stroke="none"
       d="m 662.68719,452.92947 c 3.93696,-0.82003 6.36176,1.08341 8.66633,3.42438 2.3778,2.41547 4.65686,2.29959 5.41003,-1.20276 0.63501,-2.95276 2.58289,-2.11172 4.15778,-2.01144 2.56079,0.16312 1.41009,2.12222 1.25073,3.42297 -0.3916,3.19388 -1.91559,5.66852 -5.03095,6.8653 -3.27722,1.25897 -6.20007,0.57785 -8.71777,-1.85941 -2.56586,-2.48382 -5.07397,-5.40961 -6.87946,0.71069 -0.64172,2.17542 -2.84137,1.46341 -4.3244,1.18329 -1.95624,-0.36944 -1.18304,-2.13223 -0.93359,-3.28769 0.73736,-3.41513 2.29736,-6.25387 6.4013,-7.24533 z"
       id="path100" />
    <path
       fill="#0850b0"
       opacity="1"
       stroke="none"
       d="m 894.28412,463.88831 c -3.57508,-1.16452 -5.47974,-3.30256 -5.09131,-6.78357 0.27704,-2.48233 1.78693,-4.2822 4.26129,-5.02982 3.46674,-1.04742 6.93146,0.99365 7.64392,4.43414 0.85004,4.1044 -1.22821,6.5065 -6.8139,7.37925 z"
       id="path102" />
    <path
       fill="#0850b0"
       opacity="1"
       stroke="none"
       d="m 822.40442,461.52481 c -1.84595,-4.81128 -0.80109,-8.31387 2.72021,-9.34863 3.46241,-1.0174 6.48578,-0.005 7.73816,3.5318 1.19818,3.38363 0.047,6.29471 -3.42962,7.7994 -2.60376,1.12699 -4.8711,0.27707 -7.02875,-1.98257 z"
       id="path104" />
    <path
       fill="#449ed6"
       opacity="1"
       stroke="none"
       d="m 261.7085,320.89148 c -1.09314,1.56988 -2.64484,1.23453 -4.45075,0.44421 1.1626,-1.28216 2.67282,-0.97183 4.45075,-0.44421 z"
       id="path106" />
    <path
       fill="#f5950b"
       opacity="1"
       stroke="none"
       d="m 152.00092,561.34509 c 1.26953,0.96411 1.5014,2.232 -0.26136,3.55628 -0.15068,-1.01837 -0.001,-2.12641 0.26136,-3.55628 z"
       id="path108" />
    <path
       fill="#f5950b"
       opacity="1"
       stroke="none"
       d="m 153.02353,554.349 c 1.24399,0.92871 1.4351,2.18011 -0.17325,3.53528 -0.16814,-1.00366 -0.0507,-2.10889 0.17325,-3.53528 z"
       id="path110" />
    <path
       fill="#449ed6"
       opacity="1"
       stroke="none"
       d="m 255.33249,350.96997 c 0.96432,-1.24561 2.23602,-1.35834 3.60812,0.14923 -1.0812,0.96164 -2.18149,0.42529 -3.60812,-0.14923 z"
       id="path112" />
    <path
       fill="#449ed6"
       opacity="1"
       stroke="none"
       d="m 262.19141,416.37805 c 0.0793,-0.95581 0.52755,-1.52811 1.6427,-0.66901 -0.37088,0.39069 -0.88013,0.58622 -1.6427,0.66901 z"
       id="path114" />
    <path
       fill="#449ed6"
       opacity="1"
       stroke="none"
       d="m 262.72308,375.82532 c -0.42092,3e-4 -1.01101,-0.22049 -1.69751,-0.65964 0.76813,-0.79816 1.18766,-0.27734 1.69751,0.65964 z"
       id="path116" />
    <path
       fill="#449ed6"
       opacity="1"
       stroke="none"
       d="m 261.19427,351.40414 c 0.081,-0.98611 0.53598,-1.56799 1.66053,-0.64688 -0.37781,0.39063 -0.89102,0.57779 -1.66053,0.64688 z"
       id="path118" />
    <path
       fill="#f38819"
       opacity="1"
       stroke="none"
       d="m 188.36346,695.11328 c 0.31826,-1.15497 1.19989,-1.30719 2.44147,-0.38513 -0.56493,0.32104 -1.31726,0.39532 -2.44147,0.38513 z"
       id="path120" />
    <path
       fill="#fffcfb"
       opacity="1"
       stroke="none"
       d="m 184.60493,485.39206 c 5.74479,1.2196 11.66083,-1.25812 17.02477,2.47443 5.22438,7.31341 4.65504,16.06451 -0.96477,20.67199 5.81137,5.8638 6.9386,18.47232 2.25949,25.34305 -2.20402,3.23639 -5.54564,3.96643 -9.53814,4.2099 -1.05436,0.0247 -1.71282,-0.0864 -2.37337,-0.10046 -11.0768,-0.23676 -11.07689,-0.23413 -11.07686,-11.58625 3e-5,-12.12652 0.12088,-24.25506 -0.0776,-36.37835 -0.0555,-3.38846 0.80436,-5.01633 4.74643,-4.63431 z"
       id="path122" />
    <path
       fill="#fefafa"
       opacity="1"
       stroke="none"
       d="m 201.33511,593.09338 c -3.80735,0.13343 -7.06579,0.006 -6.38565,-4.99273 0.23467,-1.72492 -1.00116,-2.14838 -2.52496,-2.13825 -1.46314,0.01 -2.77402,0.23584 -2.57681,2.05347 0.51695,4.7644 -2.2309,5.45776 -6.42472,5.08533 -2.63275,-0.25855 -2.22706,-1.87507 -2.08102,-3.34565 1.0663,-10.7373 2.57802,-21.4552 3.03607,-32.21814 0.24963,-5.86621 2.51508,-7.49542 8.17352,-6.73462 5.95555,-0.73504 7.45536,1.75611 7.66701,7.17389 0.41199,10.54602 1.85956,21.0503 2.79738,31.57898 0.11081,1.24396 1.22028,3.13532 -1.68082,3.53772 z"
       id="path124" />
    <path
       fill="#fffcfb"
       opacity="1"
       stroke="none"
       d="m 219.52969,545.75147 c 7.51613,2.2254 10.9346,12.45684 6.24663,18.55096 -1.66623,2.16595 -1.11169,2.76099 0.19591,4.53918 5.09839,6.93317 1.87114,20.50983 -5.68666,23.86078 -5.07878,0.0253 -11.37029,2.27484 -14.27098,-0.51684 -3.1706,-3.05146 -0.93688,-9.44172 -1.02263,-14.36713 -0.16524,-9.49017 0.0442,-18.98669 -0.10208,-28.47754 -0.0437,-2.83124 0.86157,-3.83087 3.68606,-3.65552 3.48482,0.21637 6.99115,0.0862 10.95375,0.0661 z"
       id="path126" />
    <path
       fill="#fefafa"
       opacity="1"
       stroke="none"
       d="m 219.53735,490.8064 c 3.4585,0.33218 7.26804,-0.86896 6.70833,4.82049 -0.33989,3.45505 -1.14555,4.90799 -4.59703,4.33402 -3.60017,-0.5987 -4.87207,0.62579 -4.84137,4.51416 0.0297,3.76339 1.05733,5.22665 4.77216,4.5827 3.472,-0.60184 4.59221,0.80743 4.50204,4.34763 -0.082,3.21997 -0.56206,5.25512 -4.30971,4.54797 -5.99594,-1.13129 -4.50196,3.15491 -4.8668,6.39282 -0.42589,3.77997 0.92653,4.90723 4.67978,4.69226 5.11645,-0.29309 6.9609,2.39465 5.29594,7.26105 -1.10263,3.22296 -4.03955,0.98028 -6.44615,1.79687 -1.59818,0.0181 -2.75742,-0.10089 -3.91773,-0.11236 -9.24722,-0.0917 -9.24064,-0.0854 -9.23506,-9.58075 0.006,-10.8169 0.14553,-21.63684 -0.0814,-32.44895 -0.0792,-3.7756 0.73924,-5.62432 4.89895,-5.0682 2.28637,0.30566 4.65133,0.0235 7.43802,-0.0797 z"
       id="path128" />
    <path
       fill="#fffcfb"
       opacity="1"
       stroke="none"
       d="m 250.17783,537.57574 c -3.63802,0.38684 -6.96138,0.4087 -10.7334,0.51648 -10.50102,-0.58886 -10.50102,-0.58886 -10.50102,-10.78546 0,-11.83178 0.3038,-23.67496 -0.14013,-35.49005 -0.1947,-5.1817 1.3689,-6.95834 6.30544,-6.10065 0.64248,0.11167 1.3287,-0.0284 2.44682,-0.15093 2.28298,1.23452 1.69988,3.21267 1.70722,4.96539 0.0461,10.98111 0.27993,21.97125 -0.0964,32.9397 -0.16165,4.71063 1.3351,6.28979 5.80949,5.61376 1.30059,-0.19647 2.65738,-0.0209 4.44078,-0.0185 2.55901,2.56806 2.26763,5.3222 0.76124,8.51025 z"
       id="path130" />
    <path
       fill="#fffcfb"
       opacity="1"
       stroke="none"
       d="m 242.42105,593.09351 c -4.11327,0.0168 -7.80128,-0.0527 -11.94925,-0.12574 -0.53763,-12.8861 -0.56486,-25.76934 -0.73566,-38.65075 -0.0341,-2.57068 0.78525,-3.64032 3.40233,-3.39508 1.63605,0.15338 3.30101,-0.002 5.40529,-0.10529 1.77536,-0.0106 3.11678,0.24219 4.41789,0.10706 3.24186,-0.33673 3.36866,1.6098 3.36457,4.01867 -0.004,2.39618 -0.11109,4.42444 -3.34786,4.01691 -3.28171,-0.41327 -5.25578,0.15253 -5.05578,4.36255 0.1524,3.20874 1.2173,4.1687 4.09776,3.72565 3.37477,-0.51899 4.14178,1.03875 4.15866,4.2066 0.0165,3.1076 -0.94353,4.33569 -3.96461,3.81225 -4.46016,-0.7727 -4.08222,2.13569 -4.21936,5.10242 -0.15113,3.26929 0.57597,5.05237 4.30944,4.61902 2.5037,-0.29071 4.96122,-0.50891 4.77225,3.58197 -0.14468,3.13196 -0.4165,5.25378 -4.65567,4.72376 z"
       id="path132" />
    <path
       fill="#fefafa"
       opacity="1"
       stroke="none"
       d="m 299.59302,485.5802 c 4.43927,-0.0344 8.47125,0.0308 12.96203,0.0164 1.48899,1.21619 1.24591,2.75653 1.24726,4.23141 0.0132,14.62262 0.009,29.24527 0.007,43.86789 -3.1e-4,2.125 0.50772,4.61255 -3.40238,4.40503 -5.46694,0.72303 -6.71423,-1.57892 -6.47607,-6.42938 0.43076,-8.77332 0.12198,-17.58295 -0.56033,-26.44553 -1.40174,8.36161 -2.83872,16.71744 -4.19547,25.08634 -1.41318,8.71661 -1.3793,8.72211 -10.70315,6.88074 -2.05326,-11.17298 -3.77665,-22.10852 -5.50006,-33.04401 -0.30079,0.0241 -0.60157,0.0482 -0.90235,0.0722 0,9.79135 -0.22281,19.59018 0.1048,29.37052 0.1398,4.17431 -1.70517,4.40167 -5.00754,4.48065 -3.51389,0.084 -4.50345,-1.03388 -4.45905,-4.50702 0.18039,-14.11761 0.24079,-28.242 -0.0253,-42.35693 -0.0805,-4.27396 0.87063,-6.25275 5.43298,-5.50531 1.61316,0.26428 3.31354,-0.004 5.42972,-0.12467 3.99466,-0.32864 5.63617,1.01734 5.93277,4.86643 0.4946,6.41888 1.67199,12.78433 2.53152,19.17639 0.21469,1.59671 0.0867,3.29126 1.59415,4.62591 1.15652,-8.57067 2.28824,-16.91741 3.40436,-25.26623 0.19607,-1.46665 0.0795,-3.10468 2.58493,-3.40088 z"
       id="path134" />
    <path
       fill="#fefafa"
       opacity="1"
       stroke="none"
       d="m 311.40356,593.10577 c -3.43139,0.31025 -4.96637,-0.89056 -4.88238,-4.13073 0.0452,-1.74219 -0.61801,-3.09839 -2.95303,-3.04584 -2.48032,0.0558 -2.62351,1.5495 -2.56,3.29449 0.22598,6.20423 -4.55069,2.86542 -7.55188,3.75544 -0.33176,-13.0644 2.07452,-25.93793 2.76327,-38.95258 0.1186,-2.24066 1.14194,-3.20416 3.44992,-3.11536 3.13431,0.12061 6.27781,0.003 9.87555,-0.0926 2.64649,4.69574 2.11661,9.87958 2.67276,14.89453 0.89164,8.04004 1.60416,16.10016 2.52405,24.13672 0.27896,2.43726 -0.57007,3.39508 -3.33826,3.25592 z"
       id="path136" />
    <path
       fill="#fffcfb"
       opacity="1"
       stroke="none"
       d="m 271.67255,554.53113 c 0.50769,4.64245 0.62716,8.90784 -2.49851,12.53009 -0.44333,0.51379 -0.84952,0.97815 -0.35754,1.70093 4.55594,6.69287 1.36215,14.20764 2.20556,21.29846 0.48258,4.05707 -2.80246,2.73157 -4.83169,2.86291 -2.07016,0.13416 -4.44403,0.66223 -4.29178,-2.94091 0.20352,-4.81714 0.05,-9.64942 0.0434,-14.47523 -0.002,-1.67675 0.10369,-3.90954 -2.04929,-3.86517 -2.43829,0.0502 -1.53461,2.48029 -1.57022,3.93726 -0.13407,5.48749 -0.11295,10.9787 -0.24198,16.92761 -9.30435,0.46027 -9.30436,0.46027 -9.30432,-8.52576 6e-5,-11.10687 0.15766,-22.21716 -0.0857,-33.31866 -0.0845,-3.85431 0.9178,-5.49426 4.93468,-4.97504 2.11593,0.27356 4.30217,0.003 6.91307,-0.11316 5.01764,0.19886 9.53567,0.55689 10.57199,6.72077 0.44345,0.79248 0.67334,1.31964 0.56235,2.2359 z"
       id="path138" />
    <path
       fill="#fefafa"
       opacity="1"
       stroke="none"
       d="m 260.44922,538.08935 c -3.02264,-0.004 -5.59047,-0.0942 -8.57846,-0.221 -2.37042,-2.51227 -0.90013,-5.36707 -1.09758,-8.43762 0.30389,-11.66535 0.39129,-22.90708 0.50624,-34.14856 0.0209,-2.04838 -0.6536,-4.63062 3.30566,-4.46534 4.06177,-0.008 7.73465,0.35266 11.35568,0.0636 3.8946,-0.31088 4.22513,1.62192 4.20469,4.73331 -0.0195,2.95801 -0.42847,4.96207 -4.00907,4.34158 -4.03225,-0.69879 -5.54306,0.71787 -5.31399,5.01993 0.17239,3.23776 0.9917,4.56433 4.25027,4.0936 3.27341,-0.47293 5.14322,0.12253 5.0528,4.32785 -0.082,3.81097 -1.20484,5.20221 -4.84458,4.55572 -5.44534,-0.96722 -4.12167,2.92115 -4.35199,5.87098 -0.26904,3.4458 0.18207,6.01776 4.60724,5.13305 4.96451,-0.99261 5.81397,1.6308 5.49924,5.82611 -0.17114,2.28101 -0.72189,3.35089 -3.15408,3.20636 -2.31726,-0.13788 -4.65085,-10e-4 -7.43207,0.1004 z"
       id="path140" />
    <path
       fill="#fefafa"
       opacity="1"
       stroke="none"
       d="m 272.04193,554.73901 c -0.63977,-0.44787 -0.81772,-0.97271 -0.96979,-1.79071 2.44294,-7.18048 2.44294,-7.17767 11.02774,-7.20343 1.32813,-0.004 2.6561,-0.0467 4.44223,-0.16675 5.0907,-0.4837 7.1612,1.3667 6.314,6.2099 -0.29181,1.66803 -0.51685,3.07666 -2.50775,2.91791 -3.2511,-0.25928 -3.31955,1.71442 -3.30106,4.10431 0.067,8.66248 0.0263,17.32581 0.0263,25.98877 3e-5,8.15918 9e-5,8.15918 -8.57654,8.18231 -0.54459,-10.86938 -0.83777,-21.74756 -0.62546,-32.61578 0.0818,-4.18738 -0.92587,-6.28442 -5.82968,-5.62653 z"
       id="path142" />
    <path
       fill="#fefafa"
       opacity="1"
       stroke="none"
       d="m 255.38243,489.11316 c -1.35506,-3.95889 -0.28766,-6.83185 4.28853,-8.1568 2.71869,-0.59891 4.57574,-2.63965 7.15063,-2.54898 1.21634,8.29831 1.21592,8.29611 -6.7005,9.81592 -1.44342,0.2771 -2.88195,0.57977 -4.73866,0.88986 z"
       id="path144" />
    <path
       fill="#ee664e"
       opacity="1"
       stroke="none"
       d="m 250.70203,529.01422 c 0.38668,2.64612 0.4952,5.29944 0.67614,8.38507 -0.19137,0.46155 -0.4552,0.49085 -1.117,0.53076 -0.34972,-2.65576 -0.30144,-5.32226 -0.32269,-8.42798 0.11544,-0.45294 0.30041,-0.46679 0.76355,-0.48785 z"
       id="path146" />
    <path
       fill="#ffffff"
       opacity="1"
       stroke="none"
       d="m 782.90527,465.01074 c 14.07282,0.24964 21.02179,7.81797 19.11768,20.30689 -1.21057,7.94012 -7.57294,13.13321 -16.62158,13.56692 -9.64594,0.46237 -9.64594,0.46234 -9.64594,-8.99615 0,-6.15073 -5.5e-4,-12.30145 1.9e-4,-18.45218 7.9e-4,-6.42298 10e-4,-6.42298 7.14965,-6.42548 z"
       id="path148" />
    <path
       fill="#f9fafd"
       opacity="1"
       stroke="none"
       d="m 856.78186,498.84393 c -5.89105,-3.9602 -7.64954,-10.76336 -4.54163,-16.16616 2.62244,-4.55887 8.42176,-5.97492 13.52277,-3.32105 2.38239,1.2395 3.99524,2.9039 3.67279,5.86218 -0.12506,1.14789 -0.0192,2.3209 -0.0192,3.48245 3.6e-4,8.97901 -3.15564,11.62659 -12.63477,10.14258 z"
       id="path150" />
    <path
       fill="#f9fafd"
       opacity="1"
       stroke="none"
       d="m 397.07678,582.12671 c -0.31174,-3.00934 0.20401,-4.60205 3.36218,-4.34528 3.3061,0.26886 6.66526,-0.0981 9.96796,0.19165 3.93463,0.34516 6.4245,2.594 6.75821,6.67359 0.33536,4.09967 -1.76831,6.70172 -5.62225,7.67462 -4.07465,1.02862 -8.27796,0.29419 -12.42179,0.43341 -1.88772,0.0634 -2.06662,-1.2066 -2.04968,-2.66528 0.029,-2.49451 0.006,-4.98963 0.005,-7.96271 z"
       id="path152" />
    <path
       fill="#f9fafd"
       opacity="1"
       stroke="none"
       d="m 688.36975,613.479 c -5.50287,0.86267 -9.13403,-1.22412 -11.15021,-5.89929 -2.12414,-4.92554 -0.87481,-11.22448 2.73963,-14.26343 3.63055,-3.05242 7.58642,-2.89727 11.60632,-0.8081 2.37836,1.23602 3.84692,2.97449 3.51398,5.93579 -0.22119,1.9679 -0.27039,4.0127 0.003,5.96722 0.70886,5.06855 -1.60571,7.82392 -6.71271,9.06781 z"
       id="path154" />
    <path
       fill="#f9fafd"
       opacity="1"
       stroke="none"
       d="m 459.62643,492.54913 c -0.5278,6.04752 -5.6643,9.42972 -11.34539,7.9046 -5.9841,-1.60647 -9.09674,-8.57495 -6.88446,-15.41287 1.92794,-5.95907 7.68225,-8.52285 13.53714,-6.07858 3.21926,1.34396 5.169,3.38306 4.73248,7.18948 -0.22519,1.96341 -0.0396,3.97394 -0.0398,6.39737 z"
       id="path156" />
    <path
       fill="#f9fafd"
       opacity="1"
       stroke="none"
       d="m 255.70358,383.97876 c 1.70359,-0.12854 3.08628,-0.10031 4.88285,-0.1051 0.60977,-0.0758 0.8056,-0.11856 1.15744,0.0957 6.80505,3.42075 9.51007,8.14572 8.22412,14.34994 -1.17157,5.65244 -5.83362,8.84437 -13.51004,8.98887 -5.7744,-1.91291 -9.5427,-5.17176 -9.63138,-11.33713 -0.0868,-6.0347 3.06517,-9.79773 8.87701,-11.99228 z"
       id="path158" />
    <path
       fill="#f9fafd"
       opacity="1"
       stroke="none"
       d="m 254.10007,332.81424 c 2.22323,-2.43964 4.67068,-3.60413 7.68628,-2.38394 2.35486,0.95285 3.70465,2.89645 3.90759,5.32376 0.20856,2.49417 -1.05863,4.55972 -3.28311,5.68048 -2.76847,1.3949 -5.44104,1.04276 -8.01934,-1.46646 -0.83232,-2.41544 -1.60293,-4.61481 -0.29142,-7.15384 z"
       id="path160" />
    <path
       fill="#f9fafd"
       opacity="1"
       stroke="none"
       d="m 231.37466,372.1853 c -4.25688,0.20389 -7.81193,-0.61047 -8.22122,-5.27405 -0.36357,-4.14251 2.1844,-6.26345 6.49628,-6.92245 6.90753,3.33581 7.49832,7.55298 1.72494,12.1965 z"
       id="path162" />
    <path
       fill="#f9fafd"
       opacity="1"
       stroke="none"
       d="m 458.94806,607.57812 c 0.67636,3.33143 0.64493,6.05543 -2.78418,7.35651 -3.77277,1.43158 -7.51065,1.7854 -10.73615,-1.11285 -2.82089,-2.53461 -1.90652,-6.9682 1.81064,-8.54425 4.1503,-1.75977 8.09479,-1.14374 11.70969,2.30059 z"
       id="path164" />
    <path
       fill="#f9fafd"
       opacity="1"
       stroke="none"
       d="m 581.48602,491.50476 c 4.11823,0.16644 8.41309,-0.37836 9.54071,4.61646 0.9986,4.42376 -2.17846,5.81527 -5.62976,6.61032 -4.41412,1.01678 -8.84808,-0.8862 -9.53583,-4.16666 -0.87524,-4.17462 1.49775,-6.14642 5.62488,-7.06012 z"
       id="path166" />
    <path
       fill="#f9fafd"
       opacity="1"
       stroke="none"
       d="m 727.57745,611.47644 c -4.35522,-4.69794 -4.71234,-9.79376 -2.36487,-15.00751 2.58155,-5.73339 9.87116,-7.23163 14.67585,-3.30169 4.43512,3.62762 5.3338,11.22924 1.92956,16.32153 -3.04388,4.55322 -8.1593,5.37659 -14.24054,1.98767 z"
       id="path168" />
    <path
       fill="#f9fafd"
       opacity="1"
       stroke="none"
       d="m 672.57825,492.29813 c 2.87243,1.19821 3.61419,3.109 3.40021,5.72259 -0.22205,2.71143 -2.19044,3.44303 -4.21766,4.19568 -0.76757,0.28503 -1.57043,0.561 -2.37695,0.64035 -3.26636,0.32147 -6.30469,-0.11496 -8.33746,-3.09866 -1.14081,-1.67432 -1.11847,-3.47861 -0.0122,-5.12278 1.99298,-2.96215 5.00507,-3.53207 8.29523,-3.17343 0.97741,0.10654 1.93024,0.43817 3.24878,0.83625 z"
       id="path170" />
    <path
       fill="#f9fafd"
       opacity="1"
       stroke="none"
       d="m 532.74048,612.39929 c -3.58838,3.68433 -7.56366,4.4419 -11.97223,2.66937 -2.16663,-0.87115 -3.51813,-2.5642 -3.49188,-4.93371 0.0262,-2.36566 1.47766,-3.9787 3.54791,-4.96344 5.99231,-2.85046 12.08069,0.62854 11.9162,7.22778 z"
       id="path172" />
    <path
       fill="#f9fafd"
       opacity="1"
       stroke="none"
       d="m 947.9519,501.13718 c -2.09588,-2.15201 -2.62823,-4.27793 -1.12005,-6.53275 1.98529,-2.96811 5.02582,-3.63284 8.29138,-3.11966 2.59021,0.40704 5.49384,0.90543 6.40088,3.86691 0.93182,3.04227 -0.0632,5.48072 -3.33136,6.68348 -3.43634,1.26471 -6.74957,1.41073 -10.24085,-0.89798 z"
       id="path174" />
    <path
       fill="#f9fafd"
       opacity="1"
       stroke="none"
       d="m 707.7655,480.78964 c 5.6286,-3.6791 10.19001,-3.53561 13.72748,0.14694 3.6593,3.80948 4.11804,11.13691 0.98193,15.68525 -2.66388,3.86355 -7.53271,5.22219 -11.87396,3.31332 -6.32684,-2.78192 -7.7763,-11.57105 -2.83545,-19.14551 z"
       id="path176" />
    <path
       fill="#f9fafd"
       opacity="1"
       stroke="none"
       d="m 639.89746,591.02588 c 8.91296,0.26715 12.232,11.65222 7.58832,18.53119 -2.35541,3.48919 -5.81561,4.87659 -9.92694,3.96801 -4.80707,-1.06231 -7.15699,-4.42083 -7.724,-9.14819 -0.68897,-5.74359 1.28351,-10.38147 5.38275,-12.29285 1.30884,-0.61029 2.8465,-0.72991 4.67987,-1.05816 z"
       id="path178" />
    <path
       fill="#f9fafd"
       opacity="1"
       stroke="none"
       d="m 304.01355,358.07733 c -4.65863,1.20383 -7.58902,-0.3656 -8.37534,-4.73221 -0.60321,-3.35003 1.15976,-5.81912 4.46372,-6.68219 3.65448,-0.95468 6.10312,0.91516 7.2952,4.22272 1.12551,3.12271 -0.44626,5.38376 -3.38358,7.19168 z"
       id="path180" />
    <path
       fill="#449ed6"
       opacity="1"
       stroke="none"
       d="m 261.88336,384.03274 c 0.0165,0.19364 -0.4592,0.0614 -0.67111,-0.0653 0.0763,-0.47049 0.36481,-0.64472 0.67111,0.0653 z"
       id="path182" />
    <path
       fill="#ef6d3f"
       opacity="1"
       stroke="none"
       d="m 190.03009,502.41327 c 0.002,-2.4082 -0.008,-4.40265 0.0111,-6.39682 0.009,-0.99161 -0.0569,-2.13202 1.25658,-2.34039 1.22212,-0.19388 2.45264,0.14181 2.87473,1.41885 0.96276,2.9129 0.89016,5.88107 -0.12113,8.77786 -0.47281,1.35431 -1.76526,1.4765 -2.91428,1.32471 -1.39477,-0.18433 -1.02789,-1.43579 -1.10702,-2.78421 z"
       id="path184" />
    <path
       fill="#ee664e"
       opacity="1"
       stroke="none"
       d="m 191.78029,514.20715 c 4.34869,1.83246 4.83916,10.0846 0.7791,14.03711 -2.59987,-4.4281 -1.45916,-9.06512 -0.7791,-14.03711 z"
       id="path186" />
    <path
       fill="#f28221"
       opacity="1"
       stroke="none"
       d="m 191.82002,513.64087 c 0.28339,4.6828 0.27197,9.17523 0.29506,14.15442 -0.42464,0.53442 -1.17033,0.78271 -1.29907,0.59894 -1.47691,-2.10883 -0.91994,-12.70526 1.00401,-14.75336 z"
       id="path188" />
    <path
       fill="#ee664e"
       opacity="1"
       stroke="none"
       d="m 193.03055,579.24658 c -2.72812,0.32831 -2.61533,-1.19604 -2.43552,-2.79797 0.62877,-5.60211 0.28343,-11.30786 2.0452,-16.82801 -0.40824,6.53901 2.35206,12.91565 0.39032,19.62598 z"
       id="path190" />
    <path
       fill="#ef6d3f"
       opacity="1"
       stroke="none"
       d="m 214.90678,583.99036 c -1.37388,-3.58527 -0.69197,-7.09028 -0.85006,-10.55939 -0.0439,-0.96307 -0.0979,-2.17487 1.23895,-2.3169 0.75366,-0.0801 1.74119,0.0883 2.30899,0.53992 2.86227,2.27667 1.21262,11.08228 -2.69788,12.33637 z"
       id="path192" />
    <path
       fill="#ef6d3f"
       opacity="1"
       stroke="none"
       d="m 218.02122,556.2406 c -0.64654,2.65131 1.67058,6.81616 -2.38212,6.61774 -3.14122,-0.15375 -1.16049,-4.00891 -1.52471,-6.16828 -0.20739,-1.22967 -0.80012,-3.22418 1.3612,-3.60333 1.93902,-0.34003 2.55815,0.98462 2.54563,3.15387 z"
       id="path194" />
    <path
       fill="#ee664e"
       opacity="1"
       stroke="none"
       d="m 302.96555,564.09534 c 0.12658,-1.83515 0.23367,-3.25263 0.38467,-5.25141 1.63196,6.23291 1.30066,12.09803 2.16324,17.81848 0.24228,1.60688 -0.10889,2.59614 -1.92606,2.65168 -1.84411,0.0564 -1.66525,-1.24384 -1.58575,-2.38855 0.2875,-4.13941 0.62549,-8.27533 0.9639,-12.8302 z"
       id="path196" />
    <path
       fill="#ee664e"
       opacity="1"
       stroke="none"
       d="m 258.2373,557.34021 c 0.0226,-1.79163 0.11316,-3.16071 2.02543,-3.04462 1.34991,0.0819 2.06195,0.98944 2.22781,2.23139 0.15005,1.12347 0.24777,2.29559 0.0926,3.40783 -0.20422,1.4646 -0.57236,3.06708 -2.53842,3.05109 -2.39343,-0.0195 -1.6532,-1.93884 -1.79886,-3.26959 -0.071,-0.64844 -0.0115,-1.31116 -0.009,-2.3761 z"
       id="path198" />
  </g>
</svg>
